<svg width="18" height="18" viewBox="0 0 18 18" fill="none" xmlns="http://www.w3.org/2000/svg">
<path fill-rule="evenodd" clip-rule="evenodd" d="M9 18C13.9706 18 18 13.9706 18 9C18 4.02944 13.9706 0 9 0C4.02944 0 0 4.02944 0 9C0 13.9706 4.02944 18 9 18ZM11.1348 6.13281L11.7617 4.87305C11.1719 4.4707 10.3848 4.26953 9.40039 4.26953C8.25195 4.26953 7.30859 4.69727 6.57031 5.55273C5.83594 6.4043 5.46875 7.46484 5.46875 8.73438C5.46875 10.0977 5.80078 11.1738 6.46484 11.9629C7.12891 12.752 8.06055 13.1465 9.25977 13.1465C10.459 13.1465 11.3691 12.8164 11.9902 12.1562L11.2812 10.9258C10.8242 11.5039 10.1914 11.793 9.38281 11.793C8.67578 11.793 8.10938 11.5234 7.68359 10.9844C7.26172 10.4453 7.05078 9.7168 7.05078 8.79883C7.05078 7.88086 7.2793 7.12305 7.73633 6.52539C8.19336 5.92383 8.7793 5.62305 9.49414 5.62305C10.248 5.62305 10.7949 5.79297 11.1348 6.13281Z" fill="#E69370"/>
</svg>
