<svg width="101" height="92" viewBox="0 0 101 92" fill="none" xmlns="http://www.w3.org/2000/svg">
  <path d="M79.3572 50.0943C78.7159 49.6126 77.5937 49.7732 77.1127 50.4154C76.6318 51.0576 76.7921 52.1815 77.4333 52.6632C88.0143 60.6911 94.1064 72.5725 94.5873 85.5777H68.2953C67.4937 80.6004 63.3254 76.9075 58.0349 76.9075C52.9048 76.9075 48.5762 80.7609 47.7746 85.5777H12.5048C11.5429 85.5777 10.9016 86.2199 10.9016 87.1833C10.9016 88.1466 11.5429 88.7889 12.5048 88.7889H96.1905C97.1524 88.7889 97.7937 88.1466 97.7937 87.1833C97.7937 72.5725 91.0603 58.925 79.3572 50.0943ZM51.1413 85.5777C51.9429 82.3665 54.6683 80.1187 58.0349 80.1187C61.4016 80.1187 64.2873 82.5271 64.9286 85.5777H51.1413Z" fill="#4D4D4D" />
  <path d="M85.9302 26.0105V6.90402C85.9302 5.94067 85.2889 5.29844 84.327 5.29844H65.0889H52.9048V3.21118C52.9048 2.24782 52.2635 1.60559 51.3016 1.60559C50.3397 1.60559 49.6985 2.24782 49.6985 3.21118V40.7819C45.8508 40.9424 42.0032 41.5847 38.4762 42.548H38.3159C34.9493 43.5114 31.9032 44.7958 28.8572 46.562C28.6969 46.562 28.6969 46.562 28.6969 46.7225C14.4286 54.5899 4.80957 69.8429 4.80957 87.1833C4.80957 88.1466 5.45084 88.7888 6.41274 88.7888C7.37465 88.7888 8.01592 88.1466 8.01592 87.1833C8.01592 71.6091 16.1921 57.9616 28.5366 50.2548C29.6588 52.5026 31.9032 53.9477 34.6286 53.9477C38.3159 53.9477 41.5223 50.897 41.5223 47.2042C41.5223 46.4014 41.3619 45.7592 41.2016 44.9564C44.408 44.1536 47.935 43.6719 51.4619 43.6719C58.1953 43.6719 64.608 45.1169 70.7 48.1675C71.5016 48.4887 72.4635 48.1675 72.7842 47.3648C73.1048 46.562 72.7842 45.5986 71.9826 45.2775C66.0508 42.3874 59.6381 40.7819 52.9048 40.4607V27.2949H84.327C85.1286 27.6161 85.9302 26.8133 85.9302 26.0105ZM34.6286 50.897C33.1858 50.897 31.9032 50.0942 31.4223 48.8098C33.5064 47.6859 35.7508 46.7225 37.9953 46.0803C38.1556 46.562 38.3159 46.8831 38.3159 47.3648C38.3159 49.2915 36.7127 50.897 34.6286 50.897ZM52.9048 8.50961H63.4858V14.9319H52.9048V8.50961ZM82.7239 24.4049H52.9048V22.9599H82.7239V24.4049ZM82.7239 19.7487H52.9048V18.1431H64.9286H65.0889H82.7239V19.7487ZM82.7239 14.7714H66.6921V13.1658H82.7239V14.7714ZM82.7239 10.1152H66.6921V8.50961H82.7239V10.1152Z" fill="#4D4D4D" />
  <path d="M34.308 70.0035C33.8271 70.0035 33.5064 69.8429 33.1858 69.5218C32.7048 68.8796 31.7429 68.719 30.9413 69.2007C30.3001 69.6824 30.1398 70.8063 30.6207 71.4485C31.4223 72.5724 32.8652 73.3752 34.308 73.3752C36.8731 73.3752 38.7969 71.288 38.7969 68.8796C38.7969 66.4712 36.8731 64.2234 34.308 64.2234C33.3461 64.2234 32.7048 64.8656 32.7048 65.829C32.7048 66.7923 33.3461 67.4346 34.308 67.4346C34.9493 67.4346 35.5906 68.0768 35.5906 68.719C35.5906 69.3613 35.1096 70.0035 34.308 70.0035Z" fill="#4D4D4D" />
  <path d="M61.2414 62.7783C60.2795 62.7783 59.6382 63.4206 59.6382 64.3839C59.6382 65.3473 60.2795 65.9895 61.2414 65.9895C65.4096 65.9895 68.9366 62.6178 68.9366 58.2827C68.9366 54.1082 65.57 50.7365 61.2414 50.7365C57.0731 50.7365 53.5461 54.1082 53.5461 58.2827C53.5461 60.0488 54.1874 61.6544 55.1493 63.0995C55.6303 63.7417 56.7525 63.9022 57.3938 63.4206C58.035 62.9389 58.1953 61.815 57.7144 61.1727C57.0731 60.37 56.7525 59.4066 56.7525 58.4433C56.7525 56.0349 58.6763 53.9476 61.2414 53.9476C63.6461 53.9476 65.7303 55.8743 65.7303 58.4433C65.7303 60.6911 63.8065 62.7783 61.2414 62.7783Z" fill="#4D4D4D" />
  <path d="M87.8541 75.4625C87.8541 72.4119 85.289 69.843 82.2429 69.843C79.1969 69.843 76.6318 72.4119 76.6318 75.4625C76.6318 78.5131 79.1969 81.082 82.2429 81.082C85.4493 81.082 87.8541 78.6737 87.8541 75.4625ZM79.9985 75.4625C79.9985 74.178 81.1207 73.0541 82.4033 73.0541C83.6858 73.0541 84.808 74.178 84.808 75.4625C84.808 76.747 83.6858 77.8709 82.4033 77.8709C80.9604 77.8709 79.9985 76.9075 79.9985 75.4625Z" fill="#4D4D4D" />
</svg>