<svg width="73" height="93" viewBox="0 0 73 93" fill="none" xmlns="http://www.w3.org/2000/svg">
  <path d="M35.5643 47.9441L41.3236 40.2904C47.8029 45.3447 55.5781 48.0885 63.7852 48.0885C64.793 48.0885 65.8009 48.0885 66.9528 47.9441C67.8167 47.9441 68.3927 47.2221 68.2487 46.3556C68.2487 46.3556 68.2487 46.3556 68.2487 46.2112C68.2487 45.778 68.1047 45.4891 67.8167 45.2003L50.9706 27.4379L59.4656 16.1739C60.0416 16.4627 60.7615 16.6071 61.3374 16.6071C62.6333 16.6071 63.7852 16.1739 64.6491 15.3075C66.5209 13.4301 66.5209 10.5419 64.793 8.6646C63.9291 7.79814 62.7773 7.2205 61.4814 7.2205C60.1856 7.2205 59.0337 7.65373 58.1698 8.52019C56.7299 9.96429 56.442 12.1304 57.3059 14.0078L46.0751 22.2391L29.2289 4.47671L29.085 4.3323C28.941 4.3323 28.941 4.18789 28.797 4.18789C28.653 4.18789 28.653 4.18789 28.509 4.04348H28.365C28.2211 4.04348 28.0771 4.04348 28.0771 4.04348C27.9331 4.04348 27.9331 4.04348 27.7891 4.04348C27.6451 4.04348 27.6451 4.18789 27.5011 4.18789C27.3571 4.18789 27.2132 4.3323 27.2132 4.3323C27.0692 4.47671 27.0692 4.47671 27.0692 4.47671C27.0692 4.62112 26.9252 4.62112 26.9252 4.76553C26.9252 4.90994 26.9252 4.90994 26.7812 5.05435C26.7812 5.19876 26.7812 5.19876 26.7812 5.19876C25.7733 14.7298 28.0771 24.1165 33.2605 31.7702L25.6293 37.5466C25.4854 37.5466 25.3414 37.5466 25.1974 37.5466C22.3177 37.5466 19.726 38.5575 17.7102 40.5792C13.8226 44.3339 13.5347 50.5435 16.5583 54.7314V67.295H12.6708C12.6708 67.295 12.6708 67.295 12.5268 67.295C12.3828 67.295 12.3828 67.295 12.2388 67.295C12.0948 67.295 12.0948 67.295 11.9508 67.4394C11.8069 67.4394 11.8069 67.5839 11.6629 67.5839L11.5189 67.7283C11.5189 67.7283 11.3749 67.8727 11.3749 68.0171C11.3749 68.1615 11.2309 68.1615 11.2309 68.3059C11.2309 68.3059 11.2309 68.3059 11.2309 68.4503L6.33545 85.9239V86.0683V86.2127C6.33545 86.2127 6.33545 86.2127 6.33545 86.3571C6.33545 86.5016 6.33545 86.5016 6.33545 86.646C6.33545 86.7904 6.33545 86.7904 6.47943 86.9348C6.47943 87.0792 6.62342 87.0792 6.62342 87.2236C6.62342 87.368 6.7674 87.368 6.7674 87.368C6.7674 87.368 6.91139 87.5124 7.05537 87.5124C7.19935 87.5124 7.19935 87.6568 7.34334 87.6568C7.34334 87.6568 7.34334 87.6568 7.48732 87.6568C7.63131 87.6568 7.77529 87.6568 7.91928 87.6568H50.1067C50.2506 87.6568 50.3946 87.6568 50.5386 87.6568C50.5386 87.6568 50.5386 87.6568 50.6826 87.6568C50.8266 87.6568 50.8266 87.5124 50.9706 87.5124C51.1145 87.5124 51.1145 87.368 51.2585 87.368L51.4025 87.2236C51.4025 87.0792 51.5465 87.0792 51.5465 86.9348C51.5465 86.7904 51.5465 86.7904 51.6905 86.646C51.6905 86.5016 51.6905 86.5016 51.6905 86.3571C51.6905 86.3571 51.6905 86.3571 51.6905 86.2127V86.0683V85.9239L46.795 68.4503C46.795 68.4503 46.795 68.4503 46.795 68.3059C46.795 68.1615 46.651 68.1615 46.651 68.0171C46.651 67.8727 46.507 67.8727 46.507 67.7283L46.3631 67.5839C46.2191 67.5839 46.2191 67.4394 46.0751 67.4394C45.9311 67.4394 45.9311 67.4394 45.7871 67.295C45.6431 67.295 45.6431 67.295 45.4992 67.295C45.4992 67.295 45.4992 67.295 45.3552 67.295H33.9804V54.7314C34.9883 52.7096 35.5643 50.3991 35.5643 47.9441ZM60.1856 10.5419C60.4735 10.2531 60.9055 9.96429 61.3374 9.96429C61.7694 9.96429 62.2013 10.1087 62.6333 10.5419C63.3532 11.264 63.3532 12.4193 62.6333 13.1413C62.3453 13.4301 61.9134 13.7189 61.3374 13.7189C60.9055 13.7189 60.4735 13.5745 60.0416 13.1413C59.4656 12.4193 59.4656 11.264 60.1856 10.5419ZM51.6905 21.6615L48.9548 25.2717L48.0909 24.2609L51.6905 21.6615ZM29.3729 8.80901L63.7852 45.2003C54.5702 45.2003 45.6431 41.4457 39.1639 34.514C32.5406 27.5823 29.085 18.3401 29.3729 8.80901ZM19.582 42.6009C21.0218 41.1568 22.8936 40.2904 24.9094 40.2904C24.9094 40.2904 24.9094 40.2904 25.0534 40.2904C27.0692 40.2904 29.085 41.1568 30.5248 42.7453C33.5485 45.9224 33.4045 50.9767 30.3808 54.0093C28.941 55.4534 26.9252 56.3199 24.9094 56.3199C22.8936 56.3199 20.8779 55.4534 19.438 53.8649C16.5583 50.6879 16.5583 45.6335 19.582 42.6009ZM30.6688 57.4752V67.295H19.438V57.4752C21.0218 58.486 22.8936 59.0637 24.9094 59.2081H25.0534C27.0692 59.2081 28.941 58.6304 30.6688 57.4752ZM43.7714 70.3276L47.9469 84.913H9.64709L13.8226 70.3276H43.7714ZM32.5406 40.7236C31.5327 39.7127 30.3808 38.8463 29.2289 38.2686L34.9883 33.9363C35.5642 34.8028 36.2842 35.5248 37.0041 36.2469C37.724 36.9689 38.2999 37.5466 39.0199 38.2686L34.7003 44.045C34.2684 43.0342 33.5485 41.7345 32.5406 40.7236Z" fill="#33322E" />
  <path d="M25.0536 54.587C28.3653 54.587 31.2449 51.8432 31.2449 48.3773C31.2449 44.9115 28.5092 42.1677 25.0536 42.1677C21.742 42.1677 18.8623 44.9115 18.8623 48.3773C18.8623 51.8432 21.598 54.587 25.0536 54.587ZM25.0536 44.9115C26.7814 44.9115 28.3653 46.5 28.3653 48.2329C28.3653 49.9658 26.9254 51.5544 25.0536 51.5544C23.3258 51.5544 21.742 49.9658 21.742 48.2329C21.742 46.5 23.1818 44.9115 25.0536 44.9115Z" fill="#33322E" />
</svg>