<?xml version="1.0" encoding="UTF-8"?><svg id="publicdomainvectors.org" xmlns="http://www.w3.org/2000/svg" viewBox="0 0 384.26 384.26"><defs><style>.cls-1,.cls-2{fill:#9ed2e3;}.cls-3{fill:#c6ebf7;}.cls-4{fill:#2da3ca;}.cls-4,.cls-5,.cls-6,.cls-7,.cls-8,.cls-9,.cls-10,.cls-11,.cls-2{fill-rule:evenodd;}.cls-5{fill:#4f92a8;}.cls-6{fill:#4e90a6;}.cls-7{fill:#3cafd6;}.cls-8{fill:#125369;}.cls-9{fill:#22647a;}.cls-10{fill:#bee9f7;}.cls-11{fill:#67a9bf;}</style></defs><path class="cls-11" d="M235.25,129.71l-15.2,44.34,20.61,20.61,15.2-44.34-20.61-20.61h0Zm-105.54,105.54l44.34-15.2,20.61,20.61-44.34,15.2-20.61-20.61Z"/><path class="cls-6" d="M235.25,129.71l-6.73,19.64,20.61,20.61,6.73-19.64-20.61-20.61h0Zm-85.89,98.81l20.61,20.61-19.64,6.73-20.61-20.61,19.64-6.73Z"/><path class="cls-2" d="M100.17,100.17c8.4-8.4,17.84-12.57,21.09-9.32l47.38,17.46-60.33,60.33-17.47-47.38c-3.25-3.25,.92-12.7,9.32-21.09Z"/><path class="cls-11" d="M128.57,128.57c16.88-16.88,35.87-25.27,42.41-18.73,6.54,6.54-1.85,25.53-18.73,42.41-16.88,16.88-35.87,25.27-42.41,18.73-6.54-6.54,1.85-25.53,18.73-42.41Z"/><path class="cls-5" d="M135.01,135.01c9.07-9.08,19.28-13.59,22.8-10.07l45.19,45.2-32.87,32.87-45.2-45.2c-3.52-3.51,.99-13.72,10.07-22.8Z"/><path class="cls-2" d="M149.68,149.68c16.88-16.89,35.87-25.27,42.41-18.73l84.07,84.07-61.14,61.14-84.07-84.07c-6.54-6.54,1.85-25.53,18.73-42.41Z"/><g><rect class="cls-3" x="211.57" y="55.64" width="179.04" height="52.28" transform="translate(30.36 236.86) rotate(-45)"/><path class="cls-4" d="M345.9,3.35l-14.35,14.35,16.48,16.48,14.35-14.35-16.48-16.48h0Zm-15.01,15.01l16.48,16.48-18.12,18.12-16.48-16.48,18.12-18.12h0Zm-18.78,18.78l-18.12,18.12,16.48,16.48,18.12-18.12-16.48-16.48h0Zm-18.78,18.78l16.48,16.48-18.12,18.12-16.48-16.48,18.12-18.12h0Zm-18.78,18.78l-18.12,18.12,16.48,16.48,18.12-18.12-16.48-16.48h0Zm-18.78,18.78l16.48,16.48-18.12,18.12-16.48-16.48,18.12-18.12h0Zm-18.78,18.78l-14.35,14.35,16.48,16.48,14.35-14.35-16.48-16.48h0Zm2.78,31.49l14.35-14.35,16.48,16.48-14.35,14.35-16.48-16.48h0Zm31.49,1.47l18.12-18.12-16.48-16.48-18.12,18.12,16.48,16.48h0Zm18.78-18.78l-16.48-16.48,18.12-18.12,16.48,16.48-18.12,18.12h0Zm18.78-18.78l18.12-18.12-16.48-16.48-18.12,18.12,16.48,16.48h0Zm18.78-18.78l-16.48-16.48,18.12-18.12,16.48,16.48-18.12,18.12h0Zm18.78-18.78l18.12-18.12-16.48-16.48-18.12,18.12,16.48,16.48h0Zm18.78-18.78l-16.48-16.48,14.35-14.35,16.48,16.48-14.35,14.35Z"/><path class="cls-7" d="M339.68,9.57l-8.13,8.13,8.97,8.97-.84-17.11h0Zm-68.02,68.02l1.54,31.42-.29,.29-16.34-16.34v-.27s15.08-15.1,15.08-15.1h0Zm1.64,33.4l1.5,30.69-3.53,3.53-12.76-12.76-.35-7.09,14.75-14.75,.38,.38h0Zm-13.59,45.79l10.91-10.91-12.04-12.04,1.12,22.95h0Zm-1.6-32.66l14.16-14.16-15.62-15.62,1.46,29.78h0ZM340.59,28.05l.63,12.94-11.97,11.97-1.54-31.42,3.18-3.18,9.7,9.69h0Zm.69,14.18l-11.38,11.38,12.55,12.55-1.17-23.93h0Zm1.24,25.31l.3,6.11-11.97,11.97-1.53-31.28,13.2,13.2h0Zm-30.65-30.17l1.54,31.42-2.94,2.94-16.48-16.48,17.88-17.88h0Zm1.6,32.67l-2.35,2.35,2.59,2.59-.24-4.94h0Zm.31,6.32l1.23,25.1-6.19,6.19-16.48-16.48,18.12-18.12,3.31,3.32h0Zm-26.09,52.42l-.17-3.58,1.88,1.88-1.7,1.7h0Zm-.24-4.95l2.6,2.6,18.12-18.12-16.48-16.48-5.54,5.54,1.3,26.47h0Zm-1.36-27.72l-.51-10.4,5.46,5.45-4.95,4.94h0Zm-.58-11.78l6.18,6.18,18.12-18.12-16.48-16.48-8.78,8.78,.96,19.64Z"/><rect class="cls-1" x="230.74" y="99.98" width="179.04" height="1.97" transform="translate(22.41 256.03) rotate(-45)"/></g><g><rect class="cls-3" x="-7.74" y="274.95" width="179.04" height="52.28" transform="translate(-188.95 146.02) rotate(-45)"/><path class="cls-4" d="M126.6,222.66l-14.35,14.35,16.48,16.48,14.35-14.35-16.48-16.48h0Zm-15.01,15.01l16.48,16.48-18.12,18.12-16.48-16.48,18.12-18.12h0Zm-18.78,18.78l-18.12,18.12,16.48,16.48,18.12-18.12-16.48-16.48h0Zm-18.78,18.78l16.48,16.48-18.12,18.12-16.48-16.48,18.12-18.12h0Zm-18.78,18.78l-18.12,18.12,16.48,16.48,18.12-18.12-16.48-16.48h0Zm-18.78,18.78l16.48,16.48-18.12,18.12-16.48-16.48,18.12-18.12h0Zm-18.78,18.78l-14.35,14.35,16.48,16.48,14.35-14.35-16.48-16.48h0Zm2.78,31.49l14.35-14.35,16.48,16.48-14.35,14.36-16.48-16.48h0Zm31.49,1.47l18.12-18.12-16.48-16.48-18.12,18.12,16.48,16.48h0Zm18.78-18.78l-16.48-16.48,18.12-18.12,16.48,16.48-18.12,18.12h0Zm18.78-18.78l18.12-18.12-16.48-16.48-18.12,18.12,16.48,16.48h0Zm18.78-18.78l-16.48-16.48,18.12-18.12,16.48,16.48-18.12,18.12h0Zm18.78-18.78l18.12-18.12-16.48-16.48-18.12,18.12,16.48,16.48h0Zm18.78-18.78l-16.48-16.48,14.35-14.35,16.48,16.48-14.35,14.35Z"/><path class="cls-7" d="M120.38,228.88l-8.13,8.13,8.97,8.97-.84-17.11h0Zm-68.02,68.02l1.54,31.42-.29,.29-16.34-16.34v-.27s15.08-15.1,15.08-15.1h0Zm1.64,33.39l1.5,30.69-3.53,3.53-12.76-12.76-.35-7.09,14.75-14.75,.38,.38h0Zm-13.59,45.79l10.91-10.91-12.04-12.04,1.12,22.95h0Zm-1.6-32.67l14.16-14.16-15.62-15.62,1.46,29.77h0Zm82.48-96.05l.63,12.94-11.97,11.97-1.54-31.42,3.18-3.18,9.69,9.69h0Zm.7,14.18l-11.38,11.38,12.55,12.55-1.17-23.93h0Zm1.24,25.31l.3,6.11-11.97,11.97-1.53-31.28,13.2,13.2h0Zm-30.65-30.17l1.54,31.42-2.94,2.94-16.48-16.48,17.88-17.88h0Zm1.6,32.67l-2.35,2.35,2.59,2.59-.24-4.94h0Zm.31,6.32l1.23,25.1-6.19,6.19-16.48-16.48,18.12-18.12,3.32,3.32h0Zm-26.09,52.42l-.17-3.58,1.87,1.88-1.7,1.7h0Zm-.24-4.95l2.6,2.6,18.12-18.12-16.48-16.48-5.54,5.54,1.3,26.47h0Zm-1.36-27.71l-.51-10.4,5.45,5.45-4.94,4.95h0Zm-.58-11.78l6.18,6.18,18.12-18.12-16.48-16.48-8.78,8.78,.96,19.64Z"/><rect class="cls-1" x="11.44" y="319.28" width="179.04" height="1.96" transform="translate(-196.89 165.2) rotate(-45)"/></g><path class="cls-11" d="M233.75,233.75c16.88-16.88,35.87-25.27,42.41-18.73,6.54,6.54-1.85,25.53-18.73,42.41-16.88,16.88-35.87,25.27-42.41,18.73-6.54-6.54,1.85-25.53,18.73-42.41Z"/><path class="cls-2" d="M242.76,242.76c9.08-9.08,19.28-13.59,22.8-10.07,.23,.23,.42,.49,.58,.77h0l.02,.03c.05,.08,.09,.16,.13,.25l6.34,12.38-13.26,13.25-13.25,13.25-12.38-6.34c-.08-.04-.17-.08-.25-.13l-.03-.02h0c-.28-.16-.54-.35-.77-.58-3.52-3.51,.99-13.72,10.07-22.8Z"/><path class="cls-11" d="M254.24,254.24c7.32-7.32,15.55-10.96,18.39-8.12s-.8,11.07-8.12,18.38c-7.32,7.32-15.55,10.96-18.38,8.12-2.84-2.83,.8-11.07,8.12-18.38Z"/><path class="cls-10" d="M158.98,158.98c16.89-16.89,35.87-25.27,42.41-18.73l25.1,25.1c-6.54-6.54-25.53,1.85-42.41,18.73-16.88,16.88-25.27,35.87-18.73,42.41l-25.1-25.1c-6.54-6.54,1.85-25.53,18.73-42.41Z"/><path class="cls-10" d="M191.21,191.21c16.88-16.88,35.87-25.27,42.41-18.73l9.61,9.61c-6.54-6.54-25.53,1.85-42.41,18.73-16.88,16.88-25.27,35.87-18.73,42.41l-9.61-9.62c-6.54-6.54,1.85-25.53,18.73-42.41Z"/><path class="cls-9" d="M255.61,255.61c5.37-5.37,11.41-8.04,13.49-5.96s-.59,8.12-5.96,13.49c-5.37,5.37-11.41,8.04-13.49,5.96-2.08-2.08,.59-8.12,5.96-13.49Z"/><path class="cls-8" d="M255.61,255.61c.87-.87,1.75-1.66,2.63-2.38-.89,1.72-1.41,3.73-1.41,5.87,0,2.82,.89,5.41,2.37,7.42-4.12,2.99-7.97,4.15-9.55,2.57-2.08-2.08,.59-8.12,5.96-13.49Z"/></svg>