<?xml version="1.0" encoding="utf-8"?>
<!-- Generator: Adobe Illustrator 25.4.1, SVG Export Plug-In . SVG Version: 6.00 Build 0)  -->
<svg version="1.1" xmlns="http://www.w3.org/2000/svg" xmlns:xlink="http://www.w3.org/1999/xlink" x="0px" y="0px"
	 viewBox="0 0 315.3 130" style="enable-background:new 0 0 315.3 130;" xml:space="preserve">
<style type="text/css">
	
		.st0{clip-path:url(#SVGID_00000047057436286485806320000006604889427945466544_);fill:url(#SVGID_00000021105473188848476580000005957649089192792733_);}
	
		.st1{clip-path:url(#SVGID_00000124152663377559002510000006362185816483336617_);fill:url(#SVGID_00000051378038220673867020000004389882487081642371_);}
	
		.st2{clip-path:url(#SVGID_00000150098713849414419800000009569987086410637998_);fill:url(#SVGID_00000078729081378799425570000005539355239494719106_);}
	
		.st3{clip-path:url(#SVGID_00000060736965236883296530000014676379911348935081_);fill:url(#SVGID_00000014609883996873768250000011094666285833642904_);}
	
		.st4{clip-path:url(#SVGID_00000160179976458244876160000017367371946153236885_);fill:url(#SVGID_00000042706327611279031140000003878898974893569443_);}
	
		.st5{clip-path:url(#SVGID_00000010271553937723965010000002344025841710553732_);fill:url(#SVGID_00000133525273846774493380000008727802782635644340_);}
	.st6{fill:#97A3AE;}
</style>
<g id="Layer_1">
</g>
<g id="Layer_2">
	<g>
		<polygon points="13.8,119.9 49.6,98.5 85.5,119.9 49.6,12.5 		"/>
		<g>
			<g>
				<defs>
					<path id="SVGID_1_" d="M49.6,12.5l35.8,107.4L49.6,98.5l-35.8,21.4L49.6,12.5z M49.6,4.3L9.1,125.7l40.5-24.2l40.5,24.2
						L49.6,4.3z"/>
				</defs>
				<clipPath id="SVGID_00000115509234759072242710000015961365227585973664_">
					<use xlink:href="#SVGID_1_"  style="overflow:visible;"/>
				</clipPath>
				
					<linearGradient id="SVGID_00000110445535341583091020000015483573067630086281_" gradientUnits="userSpaceOnUse" x1="-809.2755" y1="251.383" x2="-808.2755" y2="251.383" gradientTransform="matrix(0 -121.4005 121.4005 0 -30468.3945 -98120.7266)">
					<stop  offset="0" style="stop-color:#97A3AE"/>
					<stop  offset="0.1143" style="stop-color:#97A3AE"/>
					<stop  offset="0.1528" style="stop-color:#A2ADB8"/>
					<stop  offset="0.255" style="stop-color:#BBC4CD"/>
					<stop  offset="0.3618" style="stop-color:#CDD3DD"/>
					<stop  offset="0.4754" style="stop-color:#D8DDE6"/>
					<stop  offset="0.6071" style="stop-color:#DBE0E9"/>
					<stop  offset="1" style="stop-color:#97A3AE"/>
				</linearGradient>
				
					<rect x="9.1" y="4.3" style="clip-path:url(#SVGID_00000115509234759072242710000015961365227585973664_);fill:url(#SVGID_00000110445535341583091020000015483573067630086281_);" width="81" height="121.4"/>
			</g>
		</g>
		<g>
			<g>
				<defs>
					<polygon id="SVGID_00000147900057190657510200000011520116790999109249_" points="51.8,31.3 78.5,111.5 51.8,95.4 60.7,90.1 
											"/>
				</defs>
				<clipPath id="SVGID_00000095326613531531123020000007420537859114863007_">
					<use xlink:href="#SVGID_00000147900057190657510200000011520116790999109249_"  style="overflow:visible;"/>
				</clipPath>
				
					<linearGradient id="SVGID_00000049928920258110765860000016286972793793400508_" gradientUnits="userSpaceOnUse" x1="-801.8179" y1="254.6931" x2="-800.8179" y2="254.6931" gradientTransform="matrix(0 80.171 80.171 0 -20353.8613 64313.8242)">
					<stop  offset="0" style="stop-color:#8892A1"/>
					<stop  offset="0.1099" style="stop-color:#99A2B0"/>
					<stop  offset="0.3371" style="stop-color:#B6BDC9"/>
					<stop  offset="0.5632" style="stop-color:#CAD0DB"/>
					<stop  offset="0.7856" style="stop-color:#D7DCE5"/>
					<stop  offset="1" style="stop-color:#DBE0E9"/>
				</linearGradient>
				
					<rect x="51.8" y="31.3" style="clip-path:url(#SVGID_00000095326613531531123020000007420537859114863007_);fill:url(#SVGID_00000049928920258110765860000016286972793793400508_);" width="26.7" height="80.2"/>
			</g>
		</g>
		<g>
			<g>
				<defs>
					<polygon id="SVGID_00000023988351689624553790000011787931046273937546_" points="47.5,31.3 20.8,111.5 47.5,95.4 38.6,90.1 
											"/>
				</defs>
				<clipPath id="SVGID_00000150809595135698883750000011630938479547739319_">
					<use xlink:href="#SVGID_00000023988351689624553790000011787931046273937546_"  style="overflow:visible;"/>
				</clipPath>
				
					<linearGradient id="SVGID_00000095320036269058443710000007645501640605800341_" gradientUnits="userSpaceOnUse" x1="-801.8179" y1="235.2003" x2="-800.8179" y2="235.2003" gradientTransform="matrix(0 80.171 -80.171 0 18890.3672 64313.8242)">
					<stop  offset="0" style="stop-color:#8892A1"/>
					<stop  offset="0.1099" style="stop-color:#99A2B0"/>
					<stop  offset="0.3371" style="stop-color:#B6BDC9"/>
					<stop  offset="0.5632" style="stop-color:#CAD0DB"/>
					<stop  offset="0.7856" style="stop-color:#D7DCE5"/>
					<stop  offset="1" style="stop-color:#DBE0E9"/>
				</linearGradient>
				
					<rect x="20.8" y="31.3" style="clip-path:url(#SVGID_00000150809595135698883750000011630938479547739319_);fill:url(#SVGID_00000095320036269058443710000007645501640605800341_);" width="26.7" height="80.2"/>
			</g>
		</g>
		<g>
			<g>
				<defs>
					<polygon id="SVGID_00000145758216048909025440000018161966641695201206_" points="78.5,111.5 51.8,95.4 60.7,90.1 					"/>
				</defs>
				<clipPath id="SVGID_00000034056737554340653930000005002031760185447843_">
					<use xlink:href="#SVGID_00000145758216048909025440000018161966641695201206_"  style="overflow:visible;"/>
				</clipPath>
				
					<linearGradient id="SVGID_00000005264474816751554780000005167164576461871265_" gradientUnits="userSpaceOnUse" x1="-839.7094" y1="322.4644" x2="-838.7094" y2="322.4644" gradientTransform="matrix(-7.5588 6.806 6.806 7.5588 -8473.9043 3375.8513)">
					<stop  offset="0" style="stop-color:#44515D"/>
					<stop  offset="6.970000e-02" style="stop-color:#55616C"/>
					<stop  offset="0.2912" style="stop-color:#848E99"/>
					<stop  offset="0.5018" style="stop-color:#AAB2BB"/>
					<stop  offset="0.6961" style="stop-color:#C5CBD5"/>
					<stop  offset="0.8682" style="stop-color:#D5DBE4"/>
					<stop  offset="1" style="stop-color:#DBE0E9"/>
				</linearGradient>
				
					<polygon style="clip-path:url(#SVGID_00000034056737554340653930000005002031760185447843_);fill:url(#SVGID_00000005264474816751554780000005167164576461871265_);" points="
					66.5,76.9 41.2,99.7 63.7,124.7 89.1,101.9 				"/>
			</g>
		</g>
		<g>
			<g>
				<defs>
					<polygon id="SVGID_00000033338711988918183080000000710921390819821222_" points="20.8,111.5 47.5,95.4 38.6,90.1 					"/>
				</defs>
				<clipPath id="SVGID_00000038386430089596125000000002227971192135393416_">
					<use xlink:href="#SVGID_00000033338711988918183080000000710921390819821222_"  style="overflow:visible;"/>
				</clipPath>
				
					<linearGradient id="SVGID_00000133530605638664595510000000251107656141302204_" gradientUnits="userSpaceOnUse" x1="-725.5333" y1="219.6594" x2="-724.5333" y2="219.6594" gradientTransform="matrix(7.5588 6.806 -6.806 7.5588 7010.4419 3375.8513)">
					<stop  offset="0" style="stop-color:#44515D"/>
					<stop  offset="6.970000e-02" style="stop-color:#55616C"/>
					<stop  offset="0.2912" style="stop-color:#848E99"/>
					<stop  offset="0.5018" style="stop-color:#AAB2BB"/>
					<stop  offset="0.6961" style="stop-color:#C5CBD5"/>
					<stop  offset="0.8682" style="stop-color:#D5DBE4"/>
					<stop  offset="1" style="stop-color:#DBE0E9"/>
				</linearGradient>
				
					<polygon style="clip-path:url(#SVGID_00000038386430089596125000000002227971192135393416_);fill:url(#SVGID_00000133530605638664595510000000251107656141302204_);" points="
					32.7,76.9 58.1,99.7 35.5,124.7 10.2,101.9 				"/>
			</g>
		</g>
		<g>
			<g>
				<defs>
					<polygon id="SVGID_00000033336434419610574920000016792998347202192574_" points="47.9,80.8 41.9,82.5 47.9,84.2 49.6,90.3 
						51.4,84.2 57.4,82.5 51.4,80.8 49.6,74.7 					"/>
				</defs>
				<clipPath id="SVGID_00000039851671845659325590000003492663125500130488_">
					<use xlink:href="#SVGID_00000033336434419610574920000016792998347202192574_"  style="overflow:visible;"/>
				</clipPath>
				
					<radialGradient id="SVGID_00000140006890543253683150000008703674065320444303_" cx="-906.9545" cy="291.3274" r="1" gradientTransform="matrix(-7.7635 0 0 7.7635 -6991.5103 -2179.2144)" gradientUnits="userSpaceOnUse">
					<stop  offset="0" style="stop-color:#DBE0E9"/>
					<stop  offset="0.4035" style="stop-color:#DBE0E9"/>
					<stop  offset="0.521" style="stop-color:#D6DBE5"/>
					<stop  offset="0.6601" style="stop-color:#C8CED8"/>
					<stop  offset="0.8103" style="stop-color:#B0B7C4"/>
					<stop  offset="0.9672" style="stop-color:#8F98A7"/>
					<stop  offset="0.9953" style="stop-color:#8892A1"/>
					<stop  offset="1" style="stop-color:#8892A1"/>
				</radialGradient>
				
					<rect x="41.9" y="74.7" style="clip-path:url(#SVGID_00000039851671845659325590000003492663125500130488_);fill:url(#SVGID_00000140006890543253683150000008703674065320444303_);" width="15.5" height="15.5"/>
			</g>
		</g>
		<path class="st6" d="M99.4,90.4l2.7-2.1c1.2,1.9,2.8,2.9,4.8,2.9c2.2,0,3.7-1.4,3.7-3.2c0-2.1-2.2-2.7-4.5-3.5
			c-2.7-0.9-5.7-2-5.7-5.7c0-3.1,2.7-5.5,6.5-5.5c3.1,0,5,1.2,6.5,3l-2.5,1.8c-0.9-1.4-2.3-2.2-4.1-2.2c-2.1,0-3.4,1.2-3.4,2.8
			c0,1.9,2.1,2.6,4.5,3.4c2.8,0.9,5.8,2.1,5.8,5.9c0,3.1-2.6,6.1-6.7,6.1C103.5,94.1,101.2,92.7,99.4,90.4 M119.9,73.6h6.7
			c4.3,0,7.3,3.1,7.3,7.1c0,4-3,7.1-7.3,7.1h-3.6v6l-3-2.1V73.6z M122.9,76.4V85h3.4c2.8,0,4.5-1.9,4.5-4.3c0-2.4-1.7-4.3-4.5-4.3
			H122.9z M143.1,73.6h3.1l7.4,20.2h-3.1l-1.6-4.3h-8.5l-1.6,4.3h-3.2L143.1,73.6z M141.5,86.6h6.4l-3.2-8.9L141.5,86.6z M156,83.7
			c0-5.9,4.6-10.4,10.4-10.4c3.8,0,7.1,2.1,9,5.1l-2.6,1.6c-1.2-2.3-3.5-3.8-6.3-3.8c-4.2,0-7.4,3.3-7.4,7.5c0,4.1,3.2,7.4,7.3,7.4
			c3.1,0,5.4-1.7,6.5-4.2l2.7,1.4c-1.7,3.4-5.1,5.7-9.2,5.7C160.4,94.1,156,89.5,156,83.7 M180.9,73.6h12.1l-2.1,2.9h-7.1v5.8h9.1
			l-2.1,2.9h-7.1V91h9.1l-2.1,2.9h-10.1V73.6z M209.2,73.6h12.1l-2.1,2.9h-7.1v5.8h9.1l-2.1,2.9h-7.1v8.7l-3-2.1L209.2,73.6
			L209.2,73.6z M224.7,83.7c0-5.7,4.6-10.4,10.4-10.4c5.8,0,10.4,4.7,10.4,10.4s-4.6,10.4-10.4,10.4
			C229.4,94.1,224.7,89.5,224.7,83.7 M242.5,83.7c0-4.1-3.2-7.5-7.4-7.5c-4.1,0-7.3,3.4-7.3,7.5s3.2,7.5,7.3,7.5
			C239.3,91.2,242.5,87.8,242.5,83.7 M250.8,73.6h6.3c4.3,0,7.1,2.9,7.1,6.6c0,2.7-1.5,5.2-4.4,6.1l4.8,7.5h-3.5l-6.1-9.6h1.6
			c3,0,4.5-2.1,4.5-4c0-2.3-1.5-3.8-4.4-3.8h-3v17.4l-3-2.1L250.8,73.6L250.8,73.6z M269,83.7c0-5.9,4.6-10.4,10.4-10.4
			c3.8,0,7.1,2.1,9,5.1l-2.6,1.6c-1.2-2.3-3.5-3.8-6.3-3.8c-4.2,0-7.4,3.3-7.4,7.5c0,4.1,3.2,7.4,7.3,7.4c3.1,0,5.4-1.7,6.5-4.2
			l2.7,1.4c-1.7,3.4-5.1,5.7-9.2,5.7C273.4,94.1,269,89.5,269,83.7 M294.1,73.6h12.1l-2.1,2.9h-7.1v5.8h9.1l-2.1,2.9h-7.1V91h9.1
			l-2.1,2.9h-10.1V73.6z M139.3,59.2v-3.5h-1.4v3.5c0,1.3-0.7,2.2-2,2.2c-1.3,0-2-0.9-2-2.2v-3.5h-1.4v3.5c0,2.1,1.2,3.5,3.4,3.5
			C138,62.6,139.3,61.2,139.3,59.2 M153,62.8v-7.2h-1.4v3.9c0,0.1,0,0.4,0,0.4l-5.5-4.6v7.2h1.4v-3.8c0-0.1,0-0.5,0-0.5L153,62.8z
			 M161.5,55.7h-1.4v6.9h1.4V55.7z M174,57v-1.3h-6.4l0,1.3h2.5v5.6h1.4V57H174z M184.2,59.7v-1.2h-2.9V57h3.8v-1.3h-5.2v6.9h5.2
			v-1.3h-3.8v-1.5H184.2z M194,62.6h-2.7v-6.9h2.7c2.1,0,3.7,1.5,3.7,3.4C197.7,61,196,62.6,194,62.6 M193.9,56.9h-1.3v4.3h1.3
			c1.3,0,2.4-1,2.4-2.2S195.2,56.9,193.9,56.9 M228.4,57v-1.3h-6.4l0,1.3h2.5v5.6h1.4V57H228.4z M250.8,57v-1.3h-6.4l0,1.3h2.5v5.6
			h1.4V57H250.8z M261,59.7v-1.2h-2.9V57h3.8v-1.3h-5.2v6.9h5.2v-1.3h-3.8v-1.5H261z M236.6,55.6l-3.5,7h1.5l0.6-1.3h2.9l0.6,1.3
			h1.5L236.6,55.6z M235.6,60.1l0.9-1.8l0.9,1.8H235.6z M214.1,58.5c-1.3-0.3-1.5-0.5-1.5-1c0-0.4,0.4-0.7,1-0.7
			c0.6,0,1.2,0.2,1.8,0.7l0.1,0l0.7-1l-0.1,0c-0.7-0.6-1.5-0.9-2.5-0.9c-1.4,0-2.4,0.8-2.4,2c0,1.3,0.8,1.7,2.3,2.1
			c1.2,0.3,1.5,0.5,1.5,1c0,0.5-0.4,0.8-1.1,0.8c-0.8,0-1.4-0.3-2.1-0.9l-0.1-0.1l-0.8,1l0.1,0.1c0.8,0.7,1.8,1.1,2.9,1.1
			c1.5,0,2.5-0.8,2.5-2.1C216.3,59.5,215.7,58.9,214.1,58.5 M271,58.5c-1.3-0.3-1.5-0.5-1.5-1c0-0.4,0.4-0.7,1-0.7
			c0.6,0,1.2,0.2,1.8,0.7l0.1,0l0.7-1l-0.1,0c-0.7-0.6-1.5-0.9-2.5-0.9c-1.4,0-2.4,0.8-2.4,2c0,1.3,0.8,1.7,2.3,2.1
			c1.2,0.3,1.5,0.5,1.5,1c0,0.5-0.4,0.8-1.1,0.8c-0.8,0-1.4-0.3-2.1-0.9l-0.1-0.1l-0.8,1l0.1,0.1c0.8,0.7,1.8,1.1,2.9,1.1
			c1.5,0,2.5-0.8,2.5-2.1C273.2,59.5,272.5,58.9,271,58.5"/>
	</g>
</g>
</svg>
