<?xml version="1.0" encoding="UTF-8"?><svg xmlns="http://www.w3.org/2000/svg" viewBox="0 0 600 600"><defs><style>.cls-1{fill:#6aa4d9;}.cls-2{fill:#5a99d2;}.cls-3{fill:#3a4045;}.cls-4{fill:#498ac9;}.cls-4,.cls-5,.cls-6,.cls-7,.cls-8,.cls-9,.cls-10{fill-rule:evenodd;}.cls-5{fill:#5f9941;}.cls-6{fill:#4d873e;}.cls-7{fill:#437939;}.cls-8{fill:#cee5f7;}.cls-9{fill:#bcbac3;}.cls-10{fill:#ecf5fc;}</style></defs><g id="stars"><polygon class="cls-9" points="505.35 66.44 508.5 76.68 518.74 79.83 508.5 82.97 505.35 93.21 502.21 82.97 491.96 79.83 502.21 76.68 505.35 66.44"/><polygon class="cls-9" points="515.28 430.02 517.92 438.61 526.51 441.25 517.92 443.89 515.28 452.48 512.64 443.89 504.06 441.25 512.64 438.61 515.28 430.02"/><polygon class="cls-9" points="536.01 513.79 538.45 521.72 546.37 524.16 538.45 526.59 536.01 534.52 533.57 526.59 525.65 524.16 533.57 521.72 536.01 513.79"/><polygon class="cls-9" points="98.59 501.7 104.37 520.53 123.2 526.32 104.37 532.1 98.59 550.93 92.8 532.1 73.98 526.32 92.8 520.53 98.59 501.7"/><polygon class="cls-9" points="74.41 114.8 76.13 120.42 81.75 122.14 76.13 123.87 74.41 129.48 72.68 123.87 67.07 122.14 72.68 120.42 74.41 114.8"/><polygon class="cls-9" points="148.25 27.58 152.51 41.45 166.38 45.71 152.51 49.98 148.25 63.85 143.98 49.98 130.11 45.71 143.98 41.45 148.25 27.58"/></g><g id="earth"><circle class="cls-3" cx="300.73" cy="300.5" r="211.33" transform="translate(-124.4 300.66) rotate(-45)"/><circle class="cls-1" cx="300.73" cy="300.5" r="191.37" transform="translate(-124.4 300.66) rotate(-45)"/><path class="cls-5" d="M438.89,168.09c19.63,20.48,34.74,45.31,43.76,72.9-6.25-.28-12.45,1.73-17.39,5.76-16.19,13.24-22.11,35.34-14.71,54.9,2.18,5.75,.89,12.23-3.3,16.72-4.2,4.49-10.58,6.2-16.46,4.41-5.88-1.79-10.23-6.76-11.22-12.83-1.61-9.83-7.54-18.41-16.16-23.39-8.62-4.98-19.02-5.82-28.34-2.3-6.31,2.39-10.49,8.43-10.49,15.18s4.17,12.79,10.49,15.18c14.44,5.46,25.36,17.54,29.36,32.45,4,14.91,.57,30.83-9.2,42.78-11.76,14.39-16.79,33.13-13.79,51.47,.61,3.74-1.04,7.48-4.22,9.55-3.17,2.07-7.27,2.07-10.44,0-3.17-2.07-4.83-5.81-4.22-9.55,1.75-10.71-1.76-21.6-9.43-29.27-7.67-7.67-18.56-11.18-29.27-9.43-18.67,3.05-37.29-5.77-46.75-22.16-9.46-16.39-7.79-36.92,4.18-51.57,5-6.12,5.7-14.7,1.75-21.54-3.95-6.85-11.73-10.53-19.53-9.26-14.16,2.31-28.34-3.95-36.17-15.97-7.83-12.02-7.83-27.52,0-39.54,7.83-12.02,22.02-18.28,36.17-15.97,15.15,2.47,29.95-6.07,35.38-20.43,5.67-14.97,17.49-26.79,32.46-32.46,34.54-13.07,72.13-14.95,107.55-5.65Z"/><path class="cls-5" d="M216.51,472.38c-63.46-31.15-107.15-96.41-107.15-171.88,0-48.57,18.1-92.9,47.91-126.65,8.97,12.04,14.56,26.6,15.67,42.19,2.34,32.9-11.37,64.91-36.8,85.91-7.05,5.83-10.66,14.84-9.58,23.92,1.09,9.08,6.71,16.99,14.94,20.99,48.87,23.75,77.14,73.77,75,125.51Z"/><path class="cls-6" d="M216.51,472.38c-63.46-31.15-107.15-96.41-107.15-171.88,0,38.61,33.75,72.62,85.01,92.6,15.39,23.24,23.31,51,22.14,79.27Z"/><circle class="cls-2" cx="300.73" cy="300.5" r="185.42" transform="translate(-124.4 300.66) rotate(-45)"/><path class="cls-4" d="M483.04,334.45c-15.95,86.19-91.5,151.47-182.31,151.47s-166.36-65.28-182.31-151.47c24.67,44.91,96.96,77.44,182.31,77.44s157.64-32.52,182.31-77.44Z"/><ellipse class="cls-1" cx="300.73" cy="208.05" rx="108.56" ry="84.33"/><path class="cls-6" d="M427.9,165.58c21.93,20.68,38.83,46.65,48.64,75.88-4.08,.8-7.97,2.6-11.28,5.31-16.19,13.24-22.11,35.34-14.71,54.9,2.18,5.75,.89,12.23-3.3,16.72-4.2,4.49-10.58,6.2-16.46,4.41-5.88-1.79-10.23-6.76-11.22-12.83-1.61-9.83-7.54-18.41-16.16-23.39-8.62-4.98-19.02-5.82-28.34-2.3-6.31,2.39-10.49,8.43-10.49,15.18s4.17,12.79,10.49,15.18c14.44,5.46,25.36,17.54,29.36,32.45,4,14.91,.57,30.83-9.2,42.78-11.76,14.39-16.79,33.13-13.79,51.47,.61,3.74-1.04,7.48-4.22,9.55-3.17,2.07-7.27,2.07-10.44,0-3.17-2.07-4.83-5.81-4.22-9.55,1.75-10.71-1.76-21.6-9.43-29.27-7.67-7.67-18.56-11.18-29.27-9.43-18.67,3.05-37.29-5.77-46.75-22.16-9.46-16.39-7.79-36.92,4.18-51.57,5-6.12,5.7-14.7,1.75-21.54-3.95-6.85-11.73-10.53-19.53-9.26-14.16,2.31-28.34-3.95-36.17-15.97-7.83-12.02-7.83-27.52,0-39.54,7.83-12.02,22.02-18.28,36.17-15.97,15.15,2.47,29.95-6.07,35.38-20.43,5.67-14.97,17.49-26.79,32.46-32.46,30.98-11.72,64.43-14.44,96.56-8.16Z"/><path class="cls-7" d="M388.74,399.43c-7.03,12.65-9.67,27.41-7.3,41.91,.61,3.74-1.04,7.48-4.22,9.55-3.17,2.07-7.27,2.07-10.44,0-3.17-2.07-4.83-5.81-4.22-9.55,1.75-10.71-1.76-21.6-9.43-29.27-1.37-1.37-2.85-2.61-4.41-3.71,14.03-2.11,27.43-5.12,40.02-8.93Z"/><path class="cls-6" d="M216.62,465.79c-60.13-30.66-101.31-93.16-101.31-165.28,0-46.52,17.13-89.04,45.43-121.59,6.93,10.97,11.24,23.67,12.2,37.14,2.34,32.9-11.37,64.91-36.8,85.91-7.05,5.83-10.66,14.84-9.58,23.92,1.09,9.08,6.71,16.99,14.94,20.99,46.78,22.74,74.69,69.57,75.11,118.91Z"/><path class="cls-7" d="M216.62,465.79c-50.46-25.73-87.57-73.9-98.2-131.35,13.29,24.2,40.4,44.81,75.94,58.67,14.2,21.43,22.04,46.71,22.26,72.68Z"/><path class="cls-5" d="M391.94,162.31c10.97,13.18,17.35,28.88,17.35,45.74,0,46.57-48.6,84.33-108.56,84.33-31.19,0-59.31-10.22-79.11-26.59-.76-8,1.14-16.19,5.71-23.19,7.83-12.02,22.02-18.28,36.17-15.97,15.15,2.47,29.95-6.07,35.38-20.43,5.67-14.97,17.49-26.79,32.46-32.46,19.53-7.39,40.05-11.2,60.6-11.43Z"/><path class="cls-10" d="M372.82,477.81c-22.25,9.05-46.59,14.06-72.09,14.06s-48.57-4.74-70.35-13.35l6.39,.72c9.18,1.03,18.45,1.03,27.64,0,7.05-.79,13.94-2.64,20.45-5.48,17.09-7.46,36.52-7.46,53.61,0,10.89,4.75,22.85,6.1,34.35,4.05Z"/><path class="cls-8" d="M353.95,478.15c-16.86,5.04-34.72,7.76-53.22,7.76-16.15,0-31.81-2.07-46.74-5.95,3.48-.09,6.96-.34,10.42-.73,7.05-.79,13.94-2.64,20.45-5.48,17.09-7.46,36.52-7.46,53.61,0,4.99,2.18,10.19,3.64,15.48,4.39Z"/><path class="cls-10" d="M300.73,109.13c34.19,0,66.29,8.98,94.07,24.69-11.54,4.36-24.53,3.49-35.48-2.62-12.09-6.74-27.36-2.65-34.46,9.23-5.1,8.54-14.32,13.76-24.26,13.76s-19.16-5.23-24.26-13.76c-6.31-10.55-17.63-17.09-29.92-17.28l-17.09-.26c22.06-8.88,46.16-13.78,71.4-13.78Z"/><path class="cls-8" d="M300.73,115.08c30.91,0,60.05,7.58,85.68,20.96-9.18,1.44-18.73-.17-27.09-4.83-12.09-6.74-27.36-2.65-34.46,9.23-5.1,8.54-14.32,13.76-24.26,13.76s-19.16-5.23-24.26-13.76c-6.3-10.55-17.61-17.08-29.89-17.27,17.17-5.25,35.4-8.08,54.29-8.08Z"/><path class="cls-10" d="M300.73,123.72c13.52,0,26.46,1.93,38.41,5.44-5.78,1.82-10.93,5.69-14.28,11.29-5.1,8.54-14.32,13.76-24.26,13.76s-19.16-5.23-24.26-13.76c-2.95-4.94-7-8.99-11.73-11.93,11.3-3.1,23.46-4.79,36.12-4.79Z"/></g></svg>