<svg width="292" height="121" xmlns="http://www.w3.org/2000/svg" xmlns:xlink="http://www.w3.org/1999/xlink"><defs><path d="M40.578 8.473L76.426 115.89 40.578 94.445 4.73 115.886 40.578 8.473zm0-8.176L.064 121.693 40.578 97.46l40.515 24.238L40.578.297z" id="a"/><path id="d" d="M.744.257l26.682 80.171L.744 64.423l8.903-5.312z"/><path id="g" d="M27.413.257L.73 80.428l26.683-16.005-8.904-5.312z"/><path id="j" d="M27.426 21.428L.744 5.423 9.647.111z"/><path id="m" d="M.73 21.428L27.413 5.423 18.509.111z"/><path id="p" d="M6.845 6.747L.814 8.48l6.031 1.734 1.733 6.03 1.734-6.03 6.03-1.734-6.03-1.733L8.578.717z"/><path id="s" d="M0 0h360v360H0z"/><linearGradient x1="49.97%" y1="99.991%" x2="49.97%" y2="-.008%" id="b"><stop stop-color="#97A3AE" offset="0%"/><stop stop-color="#97A3AE" offset="11.43%"/><stop stop-color="#A2ADB8" offset="15.28%"/><stop stop-color="#BBC4CD" offset="25.5%"/><stop stop-color="#CDD3DD" offset="36.18%"/><stop stop-color="#D8DDE6" offset="47.54%"/><stop stop-color="#DBE0E9" offset="60.71%"/><stop stop-color="#97A3AE" offset="100%"/></linearGradient><linearGradient x1="49.91%" y1=".089%" x2="49.91%" y2="100.091%" id="e"><stop stop-color="#8892A1" offset="0%"/><stop stop-color="#99A2B0" offset="10.99%"/><stop stop-color="#B6BDC9" offset="33.71%"/><stop stop-color="#CAD0DB" offset="56.32%"/><stop stop-color="#D7DCE5" offset="78.56%"/><stop stop-color="#DBE0E9" offset="100%"/></linearGradient><linearGradient x1="49.972%" y1=".089%" x2="49.972%" y2="100.091%" id="h"><stop stop-color="#8892A1" offset="0%"/><stop stop-color="#99A2B0" offset="10.99%"/><stop stop-color="#B6BDC9" offset="33.71%"/><stop stop-color="#CAD0DB" offset="56.32%"/><stop stop-color="#D7DCE5" offset="78.56%"/><stop stop-color="#DBE0E9" offset="100%"/></linearGradient><linearGradient x1="55.908%" y1="44.615%" x2="40.122%" y2="58.82%" id="k"><stop stop-color="#44515D" offset="0%"/><stop stop-color="#55616C" offset="6.97%"/><stop stop-color="#848E99" offset="29.12%"/><stop stop-color="#AAB2BB" offset="50.18%"/><stop stop-color="#C5CBD5" offset="69.61%"/><stop stop-color="#D5DBE4" offset="86.82%"/><stop stop-color="#DBE0E9" offset="100%"/></linearGradient><linearGradient x1="44.092%" y1="44.615%" x2="59.878%" y2="58.82%" id="n"><stop stop-color="#44515D" offset="0%"/><stop stop-color="#55616C" offset="6.97%"/><stop stop-color="#848E99" offset="29.12%"/><stop stop-color="#AAB2BB" offset="50.18%"/><stop stop-color="#C5CBD5" offset="69.61%"/><stop stop-color="#D5DBE4" offset="86.82%"/><stop stop-color="#DBE0E9" offset="100%"/></linearGradient><radialGradient cx="49.977%" cy="50.01%" fx="49.977%" fy="50.01%" r="50%" gradientTransform="matrix(-.99994 0 0 -1 1 1)" id="q"><stop stop-color="#DBE0E9" offset="0%"/><stop stop-color="#DBE0E9" offset="40.35%"/><stop stop-color="#D6DBE5" offset="52.1%"/><stop stop-color="#C8CED8" offset="66.01%"/><stop stop-color="#B0B7C4" offset="81.03%"/><stop stop-color="#8F98A7" offset="96.72%"/><stop stop-color="#8892A1" offset="99.53%"/><stop stop-color="#8892A1" offset="100%"/></radialGradient></defs><g fill="none" fill-rule="evenodd"><path fill="#000" fill-rule="nonzero" d="M4.73 115.886l35.849-21.442 35.846 21.447L40.579 8.472z"/><g><mask id="c" fill="#fff"><use xlink:href="#a"/></mask><path fill="url(#b)" fill-rule="nonzero" mask="url(#c)" d="M.064.297h81.029v121.401H.064z"/></g><g transform="translate(42 27)"><mask id="f" fill="#fff"><use xlink:href="#d"/></mask><path fill="url(#e)" fill-rule="nonzero" mask="url(#f)" d="M.744.257h26.682v80.171H.744z"/></g><g transform="translate(11 27)"><mask id="i" fill="#fff"><use xlink:href="#g"/></mask><path fill="url(#h)" fill-rule="nonzero" mask="url(#i)" d="M.73.257h26.683v80.171H.73z"/></g><g transform="translate(42 86)"><mask id="l" fill="#fff"><use xlink:href="#j"/></mask><path fill="url(#k)" fill-rule="nonzero" mask="url(#l)" d="M15.479-13.157L-9.856 9.655 12.69 34.696l25.336-22.812z"/></g><g transform="translate(11 86)"><mask id="o" fill="#fff"><use xlink:href="#m"/></mask><path fill="url(#n)" fill-rule="nonzero" mask="url(#o)" d="M12.677-13.157L38.013 9.655 15.466 34.696-9.87 11.884z"/></g><g transform="translate(32 70)"><mask id="r" fill="#fff"><use xlink:href="#p"/></mask><path fill="url(#q)" fill-rule="nonzero" mask="url(#r)" d="M.814.717h15.528v15.527H.814z"/></g><g transform="translate(-34 -119)"><mask id="t" fill="#fff"><use xlink:href="#s"/></mask><path d="M119.143 202.082l2.66-2.079c1.192 1.912 2.799 2.938 4.85 2.938 2.244 0 3.658-1.442 3.658-3.242 0-2.079-2.218-2.744-4.545-3.492-2.744-.886-5.709-1.995-5.709-5.709 0-3.076 2.744-5.514 6.485-5.514 3.076 0 4.988 1.19 6.54 2.992l-2.467 1.829c-.914-1.413-2.271-2.161-4.073-2.161-2.05 0-3.382 1.219-3.382 2.799 0 1.939 2.135 2.576 4.463 3.353 2.771.942 5.792 2.135 5.792 5.903 0 3.104-2.55 6.068-6.735 6.068-3.464.001-5.82-1.468-7.537-3.685m20.433-16.821h6.651c4.296 0 7.315 3.104 7.315 7.095 0 3.963-3.019 7.094-7.343 7.094h-3.603v6.042l-3.02-2.054v-18.177zm3.02 2.771v8.618h3.409c2.771 0 4.518-1.884 4.518-4.295 0-2.438-1.747-4.323-4.518-4.323h-3.409zm20.262-2.771h3.104l7.427 20.23h-3.132l-1.579-4.324h-8.535l-1.552 4.324h-3.159l7.426-20.23zm-1.662 13.024h6.428l-3.214-8.868-3.214 8.868zm14.493-2.909c0-5.903 4.601-10.392 10.393-10.392 3.824 0 7.148 2.05 8.951 5.099l-2.633 1.634c-1.247-2.326-3.466-3.823-6.318-3.823-4.213 0-7.371 3.325-7.371 7.482 0 4.102 3.158 7.427 7.343 7.427 3.132 0 5.375-1.719 6.539-4.156l2.717 1.44c-1.747 3.381-5.099 5.681-9.228 5.681-5.986 0-10.393-4.656-10.393-10.392m24.946-10.115h12.137l-2.053 2.854h-7.063v5.792h9.116l-2.053 2.854h-7.063v5.848h9.116l-2.053 2.883h-10.084v-20.231zm28.275 0h12.136l-2.053 2.854h-7.064v5.792h9.117l-2.053 2.854h-7.064v8.73l-3.019-2.054v-18.176zm15.549 10.115c0-5.736 4.627-10.392 10.364-10.392a10.377 10.377 0 0110.391 10.392 10.377 10.377 0 01-10.391 10.392c-5.737 0-10.364-4.656-10.364-10.392m17.735 0c0-4.102-3.215-7.482-7.371-7.482-4.129 0-7.345 3.381-7.345 7.482 0 4.101 3.216 7.454 7.345 7.454 4.156 0 7.371-3.352 7.371-7.454m8.32-10.115h6.291c4.295 0 7.149 2.909 7.149 6.597 0 2.687-1.496 5.236-4.378 6.123l4.82 7.511h-3.463l-6.098-9.644h1.636c3.021 0 4.462-2.136 4.462-3.99 0-2.273-1.47-3.797-4.435-3.797h-2.965v17.431l-3.021-2.054v-18.177h.002zm18.172 10.115c0-5.903 4.6-10.392 10.391-10.392 3.825 0 7.15 2.05 8.951 5.099l-2.634 1.634c-1.246-2.326-3.463-3.823-6.317-3.823-4.211 0-7.371 3.325-7.371 7.482 0 4.102 3.16 7.427 7.344 7.427 3.131 0 5.377-1.719 6.54-4.156l2.716 1.44c-1.746 3.381-5.099 5.681-9.229 5.681-5.986 0-10.391-4.656-10.391-10.392m25.117-10.115h12.138l-2.053 2.854h-7.063v5.792h9.116l-2.053 2.854h-7.063v5.848h9.116l-2.053 2.883h-10.085v-20.231zm-154.819-14.472v-3.455h-1.422v3.455c0 1.341-.691 2.179-1.979 2.179-1.276 0-1.967-.851-1.967-2.193v-3.454h-1.421v3.454c0 2.113 1.249 3.508 3.401 3.508 2.126 0 3.388-1.409 3.388-3.494m13.724 3.693v-7.161h-1.409v3.879c0 .106.014.439.014.439l-5.474-4.65v7.201h1.422v-3.8c0-.119-.013-.545-.013-.545l5.46 4.637zm8.497-7.161h-1.422v6.869h1.422v-6.869zm12.477 1.289v-1.289h-6.43l.013 1.289h2.512v5.58h1.395v-5.58h2.51zm10.205 2.75v-1.223h-2.949v-1.527h3.8v-1.289h-5.208v6.869h5.222v-1.289h-3.813v-1.541h2.948zm9.779 2.83h-2.724v-6.869h2.724c2.086 0 3.706 1.541 3.706 3.441 0 1.873-1.62 3.428-3.706 3.428m-.054-5.607h-1.262v4.318h1.262c1.303 0 2.352-.956 2.352-2.152 0-1.196-1.049-2.166-2.352-2.166m34.453.027v-1.289h-6.43l.013 1.289h2.513v5.58h1.395v-5.58h2.509zm22.427 0v-1.289h-6.432l.014 1.289h2.512v5.58h1.395v-5.58h2.511zm10.23 2.75v-1.223h-2.949v-1.527h3.801v-1.289h-5.209v6.869h5.222v-1.289h-3.813v-1.541h2.948zm-24.447-4.147l-3.533 6.977h1.454l.642-1.301h2.874l.642 1.301h1.454l-3.533-6.977zm-.919 4.57l.919-1.838.916 1.838h-1.835zm-21.567-1.646c-1.305-.312-1.537-.532-1.537-.993 0-.437.41-.731 1.02-.731.588 0 1.171.222 1.78.677l.063.047.721-1.017-.057-.045c-.723-.58-1.536-.862-2.488-.862-1.397 0-2.373.838-2.373 2.036 0 1.285.842 1.741 2.298 2.093 1.248.288 1.459.53 1.459.963 0 .481-.427.779-1.115.779-.751 0-1.391-.263-2.073-.856l-.06-.05-.809.961.055.05a4.232 4.232 0 002.858 1.095c1.506 0 2.479-.822 2.479-2.094 0-1.075-.643-1.67-2.221-2.053m56.88 0c-1.305-.312-1.537-.532-1.537-.993 0-.437.41-.731 1.02-.731.588 0 1.171.222 1.78.677l.063.047.721-1.017-.057-.045c-.723-.58-1.536-.862-2.489-.862-1.397 0-2.372.838-2.372 2.036 0 1.285.842 1.741 2.298 2.093 1.248.288 1.459.53 1.459.963 0 .481-.428.779-1.115.779-.751 0-1.391-.263-2.073-.856l-.06-.05-.809.961.055.05a4.23 4.23 0 002.858 1.095c1.506 0 2.479-.822 2.479-2.094 0-1.075-.643-1.67-2.221-2.053" fill="#000" fill-rule="nonzero" mask="url(#t)"/></g></g></svg>