<?xml version="1.0" encoding="UTF-8"?>
<svg width="172px" height="201px" viewBox="0 0 172 201" version="1.1" xmlns="http://www.w3.org/2000/svg" xmlns:xlink="http://www.w3.org/1999/xlink">
    <title>Artboard</title>
    <defs>
        <rect id="path-1" x="0" y="0" width="360" height="360"></rect>
        <rect id="path-3" x="0" y="0" width="360" height="360"></rect>
        <path d="M53.068,11.137 L99.171,149.281 L53.068,121.701 L6.965,149.277 L53.068,11.137 Z M0.965,156.745 L53.068,125.58 L105.172,156.751 L53.068,0.622 L0.965,156.745 Z" id="path-5"></path>
        <linearGradient x1="50.0716842%" y1="99.9505316%" x2="50.0716842%" y2="-0.0502560063%" id="linearGradient-7">
            <stop stop-color="#97A3AE" offset="0%"></stop>
            <stop stop-color="#97A3AE" offset="11.43%"></stop>
            <stop stop-color="#A2ADB8" offset="15.28%"></stop>
            <stop stop-color="#BBC4CD" offset="25.5%"></stop>
            <stop stop-color="#CDD3DD" offset="36.18%"></stop>
            <stop stop-color="#D8DDE6" offset="47.54%"></stop>
            <stop stop-color="#DBE0E9" offset="60.71%"></stop>
            <stop stop-color="#97A3AE" offset="100%"></stop>
        </linearGradient>
        <polygon id="path-8" points="12.305 75.984 0.853 82.816 35.168 103.4 0.853 0.295"></polygon>
        <linearGradient x1="49.9880519%" y1="0.0169729887%" x2="49.9880519%" y2="100.016779%" id="linearGradient-10">
            <stop stop-color="#8892A1" offset="0%"></stop>
            <stop stop-color="#99A2B0" offset="10.99%"></stop>
            <stop stop-color="#B6BDC9" offset="33.71%"></stop>
            <stop stop-color="#CAD0DB" offset="56.32%"></stop>
            <stop stop-color="#D7DCE5" offset="78.56%"></stop>
            <stop stop-color="#DBE0E9" offset="100%"></stop>
        </linearGradient>
        <polygon id="path-11" points="0.968 103.4 35.283 82.816 23.832 75.984 35.283 0.295"></polygon>
        <linearGradient x1="49.9798922%" y1="0.0169729887%" x2="49.9798922%" y2="100.016779%" id="linearGradient-13">
            <stop stop-color="#8892A1" offset="0%"></stop>
            <stop stop-color="#99A2B0" offset="10.99%"></stop>
            <stop stop-color="#B6BDC9" offset="33.71%"></stop>
            <stop stop-color="#CAD0DB" offset="56.32%"></stop>
            <stop stop-color="#D7DCE5" offset="78.56%"></stop>
            <stop stop-color="#DBE0E9" offset="100%"></stop>
        </linearGradient>
        <polygon id="path-14" points="0.853 7.816 35.168 28.4 12.305 0.984"></polygon>
        <linearGradient x1="55.9508438%" y1="44.628421%" x2="40.1649683%" y2="58.8335183%" id="linearGradient-16">
            <stop stop-color="#44515D" offset="0%"></stop>
            <stop stop-color="#55616C" offset="6.97%"></stop>
            <stop stop-color="#848E99" offset="29.12%"></stop>
            <stop stop-color="#AAB2BB" offset="50.18%"></stop>
            <stop stop-color="#C5CBD5" offset="69.61%"></stop>
            <stop stop-color="#D5DBE4" offset="86.82%"></stop>
            <stop stop-color="#DBE0E9" offset="100%"></stop>
        </linearGradient>
        <polygon id="path-17" points="0.968 28.4 35.283 7.816 23.832 0.984"></polygon>
        <linearGradient x1="44.0567884%" y1="44.628421%" x2="59.8426639%" y2="58.8335183%" id="linearGradient-19">
            <stop stop-color="#44515D" offset="0%"></stop>
            <stop stop-color="#55616C" offset="6.97%"></stop>
            <stop stop-color="#848E99" offset="29.12%"></stop>
            <stop stop-color="#AAB2BB" offset="50.18%"></stop>
            <stop stop-color="#C5CBD5" offset="69.61%"></stop>
            <stop stop-color="#D5DBE4" offset="86.82%"></stop>
            <stop stop-color="#DBE0E9" offset="100%"></stop>
        </linearGradient>
        <polygon id="path-20" points="7.839 7.942 0.084 10.171 7.839 12.4 10.068 20.155 12.298 12.4 20.053 10.171 12.298 7.942 10.068 0.186"></polygon>
        <radialGradient cx="49.9846004%" cy="50.0836296%" fx="49.9846004%" fy="50.0836296%" r="49.9989984%" id="radialGradient-22">
            <stop stop-color="#DBE0E9" offset="0%"></stop>
            <stop stop-color="#DBE0E9" offset="40.35%"></stop>
            <stop stop-color="#D6DBE5" offset="52.1%"></stop>
            <stop stop-color="#C8CED8" offset="66.01%"></stop>
            <stop stop-color="#B0B7C4" offset="81.03%"></stop>
            <stop stop-color="#8F98A7" offset="96.72%"></stop>
            <stop stop-color="#8892A1" offset="99.53%"></stop>
            <stop stop-color="#8892A1" offset="100%"></stop>
        </radialGradient>
    </defs>
    <g id="Artboard" stroke="none" stroke-width="1" fill="none" fill-rule="evenodd">
        <g id="SpaceForce_Vertical_Gradient_RGB" transform="translate(-94.000000, -79.000000)">
            <g id="Group">
                <g id="Clipped">
                    <mask id="mask-2" fill="white">
                        <use xlink:href="#path-1"></use>
                    </mask>
                    <g id="SVGID_1_"></g>
                    <path d="M93.835,277.307 L96.052,275.575 C97.045,277.169 98.385,278.023 100.094,278.023 C101.964,278.023 103.142,276.822 103.142,275.321 C103.142,273.59 101.293,273.035 99.354,272.412 C97.068,271.674 94.598,270.749 94.598,267.654 C94.598,265.091 96.884,263.059 100.001,263.059 C102.564,263.059 104.158,264.052 105.451,265.553 L103.396,267.076 C102.634,265.898 101.502,265.275 100.001,265.275 C98.292,265.275 97.183,266.29 97.183,267.607 C97.183,269.224 98.962,269.754 100.902,270.401 C103.211,271.186 105.729,272.18 105.729,275.32 C105.729,277.907 103.604,280.378 100.117,280.378 C97.23,280.378 95.267,279.153 93.835,277.307 M110.863,263.289 L116.405,263.289 C119.984,263.289 122.501,265.876 122.501,269.201 C122.501,272.504 119.984,275.112 116.382,275.112 L113.379,275.112 L113.379,280.147 L110.863,278.436 L110.863,263.289 Z M113.379,265.599 L113.379,272.781 L116.22,272.781 C118.529,272.781 119.984,271.212 119.984,269.202 C119.984,267.171 118.529,265.599 116.22,265.599 L113.379,265.599 Z M130.264,263.289 L132.851,263.289 L139.04,280.147 L136.43,280.147 L135.114,276.544 L128.001,276.544 L126.708,280.147 L124.076,280.147 L130.264,263.289 Z M128.879,274.144 L134.236,274.144 L131.557,266.753 L128.879,274.144 Z M140.957,271.719 C140.957,266.8 144.791,263.059 149.617,263.059 C152.803,263.059 155.575,264.768 157.076,267.309 L154.882,268.67 C153.843,266.731 151.995,265.483 149.617,265.483 C146.106,265.483 143.475,268.254 143.475,271.718 C143.475,275.136 146.106,277.906 149.593,277.906 C152.204,277.906 154.073,276.474 155.043,274.442 L157.307,275.643 C155.851,278.46 153.057,280.376001 149.617,280.376001 C144.629,280.378 140.957,276.498 140.957,271.719 M161.745,263.289 L171.858,263.289 L170.147,265.668 L164.261,265.668 L164.261,270.494 L171.858,270.494 L170.147,272.873 L164.261,272.873 L164.261,277.745 L171.858,277.745 L170.147,280.147 L161.745,280.147 L161.745,263.289 Z M185.306,263.289 L195.42,263.289 L193.708,265.668 L187.823,265.668 L187.823,270.494 L195.42,270.494 L193.708,272.873 L187.823,272.873 L187.823,280.147 L185.305,278.436 L185.305,263.289 L185.306,263.289 Z M198.263,271.719 C198.263,266.938 202.12,263.059 206.901,263.059 C211.705,263.059 215.559,266.938 215.559,271.719 C215.559,276.498 211.705,280.378 206.901,280.378 C202.12,280.378 198.263,276.498 198.263,271.719 M213.043,271.719 C213.043,268.301 210.364,265.484 206.9,265.484 C203.459,265.484 200.78,268.301 200.78,271.719 C200.78,275.137 203.459,277.931 206.9,277.931 C210.364,277.931 213.043,275.137 213.043,271.719 M219.976,263.289 L225.218,263.289 C228.797,263.289 231.176,265.714 231.176,268.785 C231.176,271.025 229.929,273.15 227.528,273.889 L231.546,280.148 L228.66,280.148 L223.579,272.111 L224.941,272.111 C227.459,272.111 228.66,270.333 228.66,268.786 C228.66,266.892 227.435,265.623 224.964,265.623 L222.494,265.623 L222.494,280.148 L219.976,278.437 L219.976,263.289 Z M235.119,271.719 C235.119,266.8 238.952,263.059 243.777,263.059 C246.964,263.059 249.736,264.768 251.236,267.309 L249.042,268.67 C248.004,266.731 246.157,265.483 243.777,265.483 C240.267,265.483 237.634,268.254 237.634,271.718 C237.634,275.136 240.267,277.906 243.753,277.906 C246.363,277.906 248.234,276.474 249.203,274.442 L251.467,275.643 C250.012,278.46 247.217,280.376001 243.777,280.376001 C238.79,280.378 235.119,276.498 235.119,271.719 M256.049,263.289 L266.165,263.289 L264.454,265.668 L258.567,265.668 L258.567,270.494 L266.165,270.494 L264.454,272.873 L258.567,272.873 L258.567,277.745 L266.165,277.745 L264.454,280.147 L256.049,280.147 L256.049,263.289 Z M127.036,251.229 L127.036,248.351 L125.851,248.351 L125.851,251.229 C125.851,252.347 125.275,253.044 124.201,253.044 C123.139,253.044 122.563,252.336 122.563,251.218 L122.563,248.339 L121.378,248.339 L121.378,251.218 C121.378,252.978 122.419,254.141001 124.212,254.141001 C125.984,254.142 127.036,252.968 127.036,251.229 M138.472,254.308 L138.472,248.34 L137.298,248.34 L137.298,251.572 C137.298,251.661 137.31,251.937 137.31,251.937 L132.748,248.062 L132.748,254.063 L133.933,254.063 L133.933,250.897 C133.933,250.797 133.922,250.443 133.922,250.443 L138.472,254.308 Z M145.553,248.34 L144.368,248.34 L144.368,254.064 L145.553,254.064 L145.553,248.34 Z M155.951,249.414 L155.951,248.34 L150.592,248.34 L150.603,249.414 L152.695,249.414 L152.695,254.063 L153.858,254.063 L153.858,249.414 L155.951,249.414 Z M164.454,251.705 L164.454,250.686 L161.996,250.686 L161.996,249.414 L165.163,249.414 L165.163,248.34 L160.823,248.34 L160.823,254.064 L165.174,254.064 L165.174,252.99 L161.996,252.99 L161.996,251.706 L164.454,251.706 L164.454,251.705 Z M172.603,254.063 L170.333,254.063 L170.333,248.339 L172.603,248.339 C174.341,248.339 175.691,249.623 175.691,251.206 C175.691,252.769 174.341,254.063 172.603,254.063 M172.558,249.393 L171.507,249.393 L171.507,252.99 L172.558,252.99 C173.644,252.99 174.518,252.193 174.518,251.197 C174.518,250.199 173.644,249.393 172.558,249.393 M201.27,249.414 L201.27,248.34 L195.913,248.34 L195.923,249.414 L198.016,249.414 L198.016,254.063 L199.179,254.063 L199.179,249.414 L201.27,249.414 Z M219.958,249.414 L219.958,248.34 L214.599,248.34 L214.61,249.414 L216.703,249.414 L216.703,254.063 L217.866,254.063 L217.866,249.414 L219.958,249.414 Z M228.482,251.705 L228.482,250.686 L226.024,250.686 L226.024,249.414 L229.191,249.414 L229.191,248.34 L224.85,248.34 L224.85,254.064 L229.202,254.064 L229.202,252.99 L226.024,252.99 L226.024,251.706 L228.482,251.706 L228.482,251.705 Z M208.11,248.249 L205.167,254.063 L206.378,254.063 L206.913,252.979 L209.308,252.979 L209.843,254.063 L211.054,254.063 L208.11,248.249 Z M207.346,252.059 L208.111,250.527 L208.876,252.059 L207.346,252.059 Z M189.372,250.687 C188.285,250.427 188.091,250.244 188.091,249.859 C188.091,249.495 188.433,249.25 188.942,249.25 C189.431,249.25 189.917,249.436 190.424,249.814 L190.477,249.854 L191.079,249.007 L191.032,248.969 C190.429,248.486 189.751,248.249 188.958,248.249 C187.793,248.249 186.979,248.947 186.979,249.946 C186.979,251.017 187.681,251.397 188.895,251.69 C189.935,251.93 190.111,252.131 190.111,252.493 C190.111,252.894 189.755,253.142 189.181,253.142 C188.555,253.142 188.023,252.922 187.453,252.429 L187.404,252.387 L186.73,253.188 L186.776,253.229 C187.445,253.827 188.267,254.142 189.157,254.142 C190.412,254.142 191.222001,253.456 191.222001,252.397 C191.223,251.501 190.687,251.006 189.372,250.687 M236.771,250.687 C235.683,250.427 235.491,250.244 235.491,249.859 C235.491,249.495 235.832,249.25 236.34,249.25 C236.83,249.25 237.316,249.436 237.823,249.814 L237.876,249.854 L238.477,249.007 L238.43,248.969 C237.828,248.486 237.151,248.249 236.357,248.249 C235.193,248.249 234.379,248.947 234.379,249.946 C234.379,251.017 235.081,251.397 236.293,251.69 C237.334,251.93 237.509,252.131 237.509,252.493 C237.509,252.894 237.154,253.142 236.58,253.142 C235.954,253.142 235.421,252.922 234.851,252.429 L234.802,252.387 L234.128,253.188 L234.174,253.229 C234.843,253.827 235.666,254.142 236.555,254.142 C237.81,254.142 238.621001,253.456 238.621001,252.397 C238.622,251.501 238.086,251.006 236.771,250.687" id="Shape" fill="#000000" fill-rule="nonzero" mask="url(#mask-2)"></path>
                </g>
                <g id="Clipped">
                    <mask id="mask-4" fill="white">
                        <use xlink:href="#path-3"></use>
                    </mask>
                    <g id="SVGID_1_"></g>
                    <polygon id="Path" fill="#000000" fill-rule="nonzero" mask="url(#mask-4)" points="133.966 228.277 180.068 200.702 226.171 228.282 180.068 90.137"></polygon>
                </g>
            </g>
            <g id="Clipped" transform="translate(127.000000, 79.000000)">
                <mask id="mask-6" fill="white">
                    <use xlink:href="#path-5"></use>
                </mask>
                <g id="SVGID_3_"></g>
                <rect id="Rectangle" fill="url(#linearGradient-7)" fill-rule="nonzero" mask="url(#mask-6)" x="0.965" y="0.622" width="104.207" height="156.129"></rect>
            </g>
            <g id="Clipped" transform="translate(182.000000, 114.000000)">
                <mask id="mask-9" fill="white">
                    <use xlink:href="#path-8"></use>
                </mask>
                <g id="SVGID_6_"></g>
                <rect id="Rectangle" fill="url(#linearGradient-10)" fill-rule="nonzero" mask="url(#mask-9)" x="0.853" y="0.295" width="34.315" height="103.105"></rect>
            </g>
            <g id="Clipped" transform="translate(142.000000, 114.000000)">
                <mask id="mask-12" fill="white">
                    <use xlink:href="#path-11"></use>
                </mask>
                <g id="SVGID_9_"></g>
                <rect id="Rectangle" fill="url(#linearGradient-13)" fill-rule="nonzero" mask="url(#mask-12)" x="0.968" y="0.295" width="34.315" height="103.105"></rect>
            </g>
            <g id="Clipped" transform="translate(182.000000, 189.000000)">
                <mask id="mask-15" fill="white">
                    <use xlink:href="#path-14"></use>
                </mask>
                <g id="SVGID_12_"></g>
                <polygon id="Path" fill="url(#linearGradient-16)" fill-rule="nonzero" mask="url(#mask-15)" points="19.804 -16.08 -12.78 13.259 16.217 45.464 48.801 16.125"></polygon>
            </g>
            <g id="Clipped" transform="translate(142.000000, 189.000000)">
                <mask id="mask-18" fill="white">
                    <use xlink:href="#path-17"></use>
                </mask>
                <g id="SVGID_15_"></g>
                <polygon id="Path" fill="url(#linearGradient-19)" fill-rule="nonzero" mask="url(#mask-18)" points="16.332 -16.08 48.916 13.259 19.919 45.464 -12.665 16.125"></polygon>
            </g>
            <g id="Clipped" transform="translate(170.000000, 170.000000)">
                <mask id="mask-21" fill="white">
                    <use xlink:href="#path-20"></use>
                </mask>
                <g id="SVGID_18_"></g>
                <rect id="Rectangle" fill="url(#radialGradient-22)" fill-rule="nonzero" mask="url(#mask-21)" x="0.084" y="0.186" width="19.969" height="19.969"></rect>
            </g>
        </g>
    </g>
</svg>