<?xml version="1.0" encoding="UTF-8"?>
<svg xmlns="http://www.w3.org/2000/svg" xmlns:xlink="http://www.w3.org/1999/xlink" viewBox="0 0 391 743">
  <defs>
    <style>
      .cls-1 {
        fill: none;
      }

      .cls-2 {
        fill: url(#linear-gradient);
      }

      .cls-3 {
        clip-path: url(#clippath);
      }

      .cls-4 {
        fill: #fdfdfa;
        stroke-linecap: square;
        stroke-linejoin: round;
      }

      .cls-4, .cls-5, .cls-6, .cls-7 {
        stroke: #000;
        stroke-width: .5px;
      }

      .cls-8 {
        fill: #f3f3ce;
      }

      .cls-9 {
        fill: #020406;
      }

      .cls-10 {
        fill: blue;
      }

      .cls-11 {
        fill: #fff;
      }

      .cls-12 {
        fill: #d6d6d6;
      }

      .cls-13 {
        fill: #1a1818;
      }

      .cls-14 {
        fill: #1a1a1a;
      }

      .cls-15 {
        fill: gray;
      }

      .cls-16 {
        fill: #556978;
      }

      .cls-17 {
        clip-path: url(#clippath-1);
      }

      .cls-5 {
        fill: #fdfdfc;
      }

      .cls-5, .cls-6, .cls-7 {
        stroke-miterlimit: 10;
      }

      .cls-6 {
        fill: #c2c4c5;
      }

      .cls-7 {
        fill: #afb1b1;
      }

      .cls-18 {
        opacity: .6;
      }

      .cls-19 {
        opacity: .52;
      }

      .cls-20 {
        opacity: .49;
      }

      .cls-21 {
        opacity: .7;
      }

      .cls-21, .cls-22 {
        fill: #071726;
      }

      .cls-22 {
        opacity: .4;
      }
    </style>
    <clipPath id="clippath">
      <polygon class="cls-1" points="355.29 541.79 195.76 79.32 33.01 541.79 194.15 702.93 355.29 541.79"/>
    </clipPath>
    <clipPath id="clippath-1">
      <path class="cls-1" d="m240.64,543.51s0,0,0,0c.1.21.2.42.28.64,5.9-.72,12.48-1.83,18.08.34,2.73,1.19,1.63,3.75.57,5.79-8.09,13.68-24.3,21.86-39.08,24.98-8.45,1.5-17.7,1.19-26.55.84-18.51-.84-36.5-9.19-49.75-21.73l.75.68c-6.78-7.75-12.64-15.59-15.99-23.71-.76-1.67-1.48-4.39-2.01-6.17-5.16-18.21-6.39-37.72-1.81-56.12,13.01-46.31,54.54-77.89,84.08-116.66l-43.77-29.88c-9.83,16.88-22.45,33.9-34.8,52.4-16.03,23.95-30.98,50.52-36.8,79.36-5.12,26.71-.93,54.59,9.79,79.35.41.83,1.94,4.46,2.36,5.22,3.39,6.62,8.03,12.85,12.8,18.07,3.98,4.38,8.16,8.3,12.32,11.97,13.16,10.04,29.07,16.41,45.22,18.52,7.82,1.06,15.69.79,23.5-.11,11.13-1.07,23.38-3.13,33.45-8.78,6.77-3.58,13.13-7.91,18.57-13.3,4.04-4.02,7.82-8.58,9.92-13.98,5.52-12.98-13.83-9.12-21.12-7.73Z"/>
    </clipPath>
    <linearGradient id="linear-gradient" x1="80.69" y1="455.34" x2="288.24" y2="455.34" gradientUnits="userSpaceOnUse">
      <stop offset="0" stop-color="#73b8e5" stop-opacity="1"/>
      <stop offset=".25" stop-color="#7cbae2" stop-opacity=".94"/>
      <stop offset=".74" stop-color="#95c1da" stop-opacity=".79"/>
      <stop offset="1" stop-color="#a4c6d6" stop-opacity=".7"/>
    </linearGradient>
  </defs>
  <g id="background">
    <g>
      <polygon class="cls-13" points="20.18 546.93 196.87 44.85 370.08 546.97 195.15 721.9 20.18 546.93"/>
      <path d="m196.76,81.32l159.53,462.47-161.14,161.14-161.14-161.14L196.76,81.32m.23-72.94l-22.87,64.98L11.37,535.82l-5.02,14.25,10.68,10.68,161.14,161.14,16.97,16.97,16.97-16.97,161.14-161.14,10.61-10.61-4.89-14.19L219.45,73.49l-22.46-65.12h0Z"/>
    </g>
  </g>
  <g id="Layer_14" data-name="Layer 14">
    <g class="cls-3">
      <g>
        <path class="cls-11" d="m285.33,781.08c40.45-5.81,83.54-12.01,129.53-18.62-5.64-30.62-10.72-58.27-15.35-83.34-39.34,8.06-76.51,15.68-111.71,22.91-.76,24-1.57,50.24-2.47,79.06Z"/>
        <path class="cls-13" d="m177.58,796.57c33.84-4.86,69.7-10.02,107.75-15.49.9-28.81,1.72-55.06,2.47-79.06-33.37,6.84-65.04,13.33-95.15,19.51-4.62,22.95-9.61,47.88-15.07,75.04Z"/>
        <path class="cls-11" d="m86.55,809.65c28.73-4.14,59.03-8.5,91.03-13.09,5.45-27.16,10.45-52.08,15.07-75.04-28.66,5.87-55.97,11.48-82.02,16.82-7.41,21.95-15.42,45.65-24.08,71.3Z"/>
        <path class="cls-13" d="m8.62,820.85c24.7-3.55,50.64-7.28,77.93-11.2,8.66-25.66,16.67-49.35,24.08-71.3-24.88,5.1-48.67,9.98-71.43,14.65-9.46,21.01-19.63,43.56-30.58,67.86Z"/>
        <path class="cls-11" d="m399.51,679.11c41.68-8.56,85.94-17.62,133-27.27-11.01-23.61-21.04-45.03-30.16-64.57-40.2,10.13-78.29,19.75-114.44,28.87,3.55,19.21,7.39,40.12,11.6,62.97Z"/>
        <path class="cls-13" d="m287.8,702.02c35.19-7.23,72.37-14.84,111.71-22.91-4.2-22.85-8.05-43.76-11.6-62.97-34.36,8.67-67.05,16.92-98.2,24.77-.58,18.76-1.23,39.07-1.91,61.1Z"/>
        <path class="cls-10" d="m192.65,721.53c30.11-6.18,61.78-12.67,95.15-19.51.68-22.04,1.32-42.34,1.91-61.1-29.71,7.49-58.07,14.65-85.19,21.49-3.67,18.26-7.61,37.92-11.87,59.12Z"/>
        <path class="cls-13" d="m110.63,738.35c26.05-5.34,53.36-10.95,82.02-16.82,4.26-21.21,8.21-40.86,11.87-59.12-25.94,6.54-50.79,12.81-74.6,18.82-5.99,17.74-12.4,36.73-19.29,57.12Z"/>
        <path class="cls-10" d="m39.2,753c22.76-4.66,46.55-9.54,71.43-14.65,6.89-20.39,13.3-39.39,19.29-57.12-22.85,5.76-44.79,11.3-65.87,16.62-7.75,17.2-16.01,35.55-24.85,55.15Z"/>
        <path class="cls-13" d="m-23.57,765.87c20.06-4.11,40.96-8.4,62.77-12.87,8.84-19.61,17.1-37.95,24.85-55.15-20.28,5.11-39.79,10.04-58.59,14.78-9.09,16.67-18.75,34.38-29.03,53.24Z"/>
        <path class="cls-11" d="m-79.17,777.27c17.81-3.65,36.33-7.45,55.59-11.4,10.28-18.86,19.94-36.57,29.03-53.24-18.12,4.57-35.59,8.98-52.45,13.23-10.11,16.15-20.81,33.26-32.17,51.41Z"/>
        <path class="cls-13" d="m474.03,539.31c-33.16,9.61-64.86,18.8-95.19,27.58,2.82,15.18,5.82,31.55,9.07,49.25,36.15-9.12,74.25-18.74,114.44-28.87-1.3-2.78-2.58-5.52-3.84-8.23l-24.48-39.74Z"/>
        <path class="cls-10" d="m289.71,640.92c31.15-7.85,63.84-16.11,98.2-24.77-3.26-17.7-6.26-34.08-9.07-49.25-30.5,8.84-59.67,17.29-87.61,25.39-.47,15.07-.97,31.24-1.52,48.64Z"/>
        <path class="cls-13" d="m204.52,662.41c27.11-6.84,55.48-14,85.19-21.49.55-17.4,1.05-33.57,1.52-48.64-26.77,7.75-52.45,15.2-77.11,22.34-2.99,14.88-6.18,30.77-9.6,47.79Z"/>
        <path class="cls-10" d="m129.92,681.23c23.82-6.01,48.66-12.28,74.6-18.82,3.42-17.02,6.61-32.91,9.6-47.79-23.69,6.87-46.47,13.47-68.4,19.82-4.94,14.63-10.2,30.19-15.8,46.79Z"/>
        <path class="cls-13" d="m64.05,697.84c21.08-5.32,43.02-10.85,65.87-16.62,5.6-16.6,10.86-32.16,15.8-46.79-21.11,6.12-41.46,12.01-61.08,17.7-6.46,14.34-13.31,29.55-20.6,45.71Z"/>
        <path class="cls-10" d="m5.46,712.63c18.8-4.74,38.31-9.67,58.59-14.78,7.28-16.16,14.13-31.37,20.6-45.71-18.93,5.49-37.21,10.78-54.88,15.9-7.65,14.04-15.74,28.88-24.31,44.59Z"/>
        <path class="cls-13" d="m-47,725.86c16.86-4.26,34.34-8.66,52.45-13.23,8.57-15.71,16.66-30.55,24.31-44.59-17.07,4.95-33.59,9.73-49.57,14.36-8.59,13.72-17.64,28.18-27.19,43.46Z"/>
        <path class="cls-11" d="m450.97,501.88c-27.48,8.8-53.93,17.27-79.42,25.43,2.27,12.3,4.7,25.46,7.29,39.58,30.33-8.78,62.03-17.97,95.19-27.58l-23.06-37.43Z"/>
        <path class="cls-13" d="m291.23,592.28c27.94-8.1,57.11-16.55,87.61-25.39-2.59-14.12-5.02-27.28-7.29-39.58-27.42,8.78-53.76,17.21-79.08,25.33-.39,12.37-.8,25.56-1.24,39.64Z"/>
        <path class="cls-10" d="m214.12,614.62c24.66-7.15,50.34-14.59,77.11-22.34.44-14.08.85-27.27,1.24-39.64-24.37,7.8-47.83,15.32-70.43,22.56-2.48,12.35-5.12,25.47-7.92,39.43Z"/>
        <path class="cls-13" d="m145.72,634.44c21.92-6.35,44.7-12.95,68.4-19.82,2.8-13.96,5.44-27.07,7.92-39.43-21.8,6.98-42.83,13.72-63.14,20.22-4.14,12.27-8.53,25.25-13.18,39.03Z"/>
        <path class="cls-10" d="m84.64,652.14c19.62-5.69,39.97-11.58,61.08-17.7,4.65-13.77,9.04-26.76,13.18-39.03-19.61,6.28-38.57,12.35-56.91,18.22-5.47,12.14-11.24,24.95-17.35,38.5Z"/>
        <path class="cls-13" d="m29.77,668.04c17.66-5.12,35.94-10.41,54.88-15.9,6.1-13.54,11.88-26.36,17.35-38.5-17.74,5.68-34.92,11.18-51.57,16.51-6.53,11.98-13.41,24.59-20.66,37.89Z"/>
        <path class="cls-10" d="m-19.8,682.4c15.98-4.63,32.5-9.42,49.57-14.36,7.25-13.29,14.13-25.91,20.66-37.89-16.13,5.16-31.77,10.17-46.94,15.03-7.38,11.8-15.14,24.19-23.29,37.22Z"/>
        <path class="cls-13" d="m-64.81,695.44c14.53-4.21,29.53-8.56,45-13.04,8.15-13.03,15.91-25.42,23.29-37.22-14.72,4.72-29.02,9.3-42.91,13.74-8.06,11.6-16.51,23.76-25.38,36.52Z"/>
        <path class="cls-13" d="m432.39,471.72c-22.99,7.95-45.26,15.64-66.82,23.09,1.87,10.17,3.86,20.98,5.99,32.5,25.48-8.16,51.94-16.64,79.42-25.43l-18.58-30.15Z"/>
        <path class="cls-10" d="m292.47,552.64c25.32-8.11,51.66-16.54,79.08-25.33-2.12-11.52-4.11-22.33-5.99-32.5-24.9,8.61-48.91,16.9-72.07,24.9-.32,10.34-.67,21.29-1.03,32.92Z"/>
        <path class="cls-13" d="m222.04,575.19c22.61-7.24,46.07-14.75,70.43-22.56.36-11.63.71-22.59,1.03-32.92-22.36,7.72-43.95,15.19-64.82,22.4-2.1,10.42-4.3,21.43-6.64,33.08Z"/>
        <path class="cls-10" d="m158.9,595.41c20.3-6.5,41.34-13.24,63.14-20.22,2.34-11.65,4.55-22.66,6.64-33.08-20.18,6.97-39.71,13.72-58.62,20.25-3.53,10.44-7.24,21.44-11.16,33.05Z"/>
        <path class="cls-13" d="m101.99,613.64c18.34-5.87,37.3-11.94,56.91-18.22,3.92-11.61,7.64-22.61,11.16-33.05-18.31,6.33-36.06,12.46-53.26,18.4-4.69,10.41-9.62,21.35-14.81,32.87Z"/>
        <path class="cls-10" d="m50.42,630.15c16.64-5.33,33.82-10.83,51.57-16.51,5.19-11.52,10.12-22.46,14.81-32.87-16.69,5.77-32.88,11.36-48.61,16.8-5.64,10.34-11.56,21.2-17.77,32.59Z"/>
        <path class="cls-13" d="m3.48,645.18c15.17-4.86,30.81-9.87,46.94-15.03,6.21-11.39,12.13-22.25,17.77-32.59-15.27,5.28-30.11,10.4-44.54,15.39-6.42,10.25-13.13,20.99-20.17,32.23Z"/>
        <path class="cls-10" d="m-39.43,658.92c13.89-4.45,28.19-9.03,42.91-13.74,7.04-11.25,13.75-21.98,20.17-32.23-14.03,4.85-27.68,9.56-40.96,14.15-7.05,10.14-14.42,20.74-22.12,31.82Z"/>
        <path class="cls-11" d="m417.1,446.91c-19.37,7.1-38.2,14.02-56.54,20.74,1.57,8.55,3.25,17.58,5,27.16,21.57-7.45,43.83-15.14,66.82-23.09l-15.29-24.81Z"/>
        <path class="cls-13" d="m293.5,519.71c23.16-8,47.17-16.29,72.07-24.9-1.75-9.58-3.43-18.62-5-27.16-22.81,8.37-44.86,16.45-66.2,24.28-.27,8.77-.56,18.01-.87,27.78Z"/>
        <path class="cls-10" d="m228.68,542.11c20.87-7.21,42.46-14.67,64.82-22.4.31-9.77.6-19.02.87-27.78-20.65,7.58-40.65,14.91-60.03,22.02-1.79,8.91-3.67,18.28-5.65,28.16Z"/>
        <path class="cls-13" d="m170.06,562.36c18.9-6.53,38.43-13.28,58.62-20.25,1.98-9.88,3.86-19.25,5.65-28.16-18.79,6.89-37.01,13.58-54.7,20.06-3.04,8.99-6.22,18.43-9.57,28.35Z"/>
        <path class="cls-10" d="m116.8,580.77c17.21-5.95,34.95-12.08,53.26-18.4,3.35-9.92,6.54-19.36,9.57-28.35-17.17,6.3-33.84,12.41-50.04,18.36-4.07,9.03-8.33,18.48-12.79,28.39Z"/>
        <path class="cls-13" d="m68.19,597.56c15.72-5.43,31.92-11.03,48.61-16.8,4.47-9.92,8.73-19.37,12.79-28.39-15.75,5.78-31.06,11.39-45.96,16.86-4.92,9.02-10.06,18.46-15.45,28.33Z"/>
        <path class="cls-10" d="m23.65,612.95c14.43-4.99,29.27-10.11,44.54-15.39,5.38-9.87,10.53-19.31,15.45-28.33-14.49,5.32-28.61,10.49-42.35,15.53-5.63,8.99-11.5,18.38-17.64,28.19Z"/>
        <path class="cls-13" d="m-17.31,627.1c13.28-4.59,26.93-9.31,40.96-14.15,6.14-9.81,12.01-19.19,17.64-28.19-13.39,4.91-26.44,9.7-39.15,14.36-6.21,8.94-12.69,18.26-19.44,27.98Z"/>
        <path class="cls-10" d="m-55.11,640.16c12.27-4.24,24.87-8.59,37.8-13.06,6.75-9.72,13.23-19.03,19.44-27.98-12.4,4.55-24.5,8.99-36.3,13.32-6.7,8.88-13.67,18.11-20.94,27.72Z"/>
        <path class="cls-13" d="m404.3,426.13c-16.37,6.3-32.36,12.46-47.98,18.47,1.33,7.28,2.75,14.95,4.25,23.04,18.33-6.72,37.17-13.64,56.54-20.74l-12.8-20.78Z"/>
        <path class="cls-10" d="m294.37,491.93c21.34-7.83,43.39-15.92,66.2-24.28-1.5-8.09-2.91-15.76-4.25-23.04-21.04,8.1-41.43,15.95-61.21,23.57-.23,7.53-.48,15.44-.74,23.76Z"/>
        <path class="cls-13" d="m234.33,513.95c19.38-7.11,39.38-14.45,60.03-22.02.26-8.32.51-16.23.74-23.76-19.19,7.39-37.82,14.56-55.91,21.52-1.55,7.7-3.17,15.78-4.87,24.25Z"/>
        <path class="cls-10" d="m179.64,534.02c17.68-6.49,35.91-13.17,54.7-20.06,1.7-8.48,3.32-16.55,4.87-24.25-17.57,6.77-34.66,13.34-51.26,19.74-2.65,7.82-5.41,16.01-8.3,24.58Z"/>
        <path class="cls-13" d="m129.59,552.37c16.2-5.94,32.87-12.06,50.04-18.36,2.89-8.57,5.66-16.76,8.3-24.58-16.16,6.22-31.88,12.27-47.18,18.17-3.56,7.9-7.28,16.15-11.16,24.77Z"/>
        <path class="cls-10" d="m83.64,569.23c14.9-5.46,30.21-11.08,45.96-16.86,3.89-8.62,7.6-16.87,11.16-24.77-14.9,5.74-29.42,11.33-43.56,16.77-4.33,7.94-8.84,16.22-13.55,24.86Z"/>
        <path class="cls-13" d="m41.29,584.76c13.74-5.04,27.85-10.22,42.35-15.53,4.71-8.64,9.22-16.92,13.55-24.86-13.79,5.31-27.23,10.49-40.35,15.54-4.98,7.95-10.16,16.23-15.55,24.86Z"/>
        <path class="cls-10" d="m2.14,599.13c12.72-4.66,25.77-9.45,39.15-14.36,5.4-8.63,10.58-16.9,15.55-24.86-12.8,4.93-25.28,9.73-37.48,14.43-5.52,7.94-11.26,16.2-17.23,24.79Z"/>
        <path class="cls-13" d="m-34.17,612.44c11.8-4.33,23.9-8.77,36.3-13.32,5.97-8.59,11.71-16.85,17.23-24.79-11.91,4.58-23.54,9.06-34.9,13.44-5.98,7.92-12.19,16.13-18.64,24.67Z"/>
        <path class="cls-10" d="m393.43,408.48c-13.86,5.55-27.44,11-40.75,16.33,1.15,6.28,2.37,12.87,3.64,19.79,15.62-6.02,31.61-12.17,47.98-18.47l-10.87-17.65Z"/>
        <path class="cls-13" d="m295.11,468.17c19.78-7.62,40.17-15.46,61.21-23.57-1.27-6.92-2.49-13.51-3.64-19.79-19.52,7.83-38.49,15.43-56.92,22.81-.2,6.53-.41,13.38-.64,20.55Z"/>
        <path class="cls-10" d="m239.2,489.7c18.09-6.96,36.72-14.14,55.91-21.52.23-7.17.44-14.02.64-20.55-17.92,7.18-35.35,14.16-52.31,20.96-1.35,6.73-2.76,13.75-4.24,21.11Z"/>
        <path class="cls-13" d="m187.94,509.43c16.61-6.39,33.69-12.97,51.26-19.74,1.48-7.36,2.89-14.38,4.24-21.11-16.51,6.61-32.58,13.05-48.24,19.33-2.32,6.87-4.74,14.03-7.27,21.52Z"/>
        <path class="cls-10" d="m140.76,527.6c15.31-5.89,31.02-11.94,47.18-18.17,2.53-7.48,4.95-14.65,7.27-21.52-15.26,6.11-30.13,12.07-44.62,17.88-3.14,6.97-6.41,14.23-9.82,21.8Z"/>
        <path class="cls-13" d="m97.19,544.37c14.15-5.45,28.66-11.03,43.56-16.77,3.41-7.57,6.68-14.83,9.82-21.8-14.14,5.67-27.94,11.2-41.4,16.59-3.84,7.04-7.83,14.36-11.99,21.98Z"/>
        <path class="cls-10" d="m56.84,559.91c13.11-5.05,26.56-10.23,40.35-15.54,4.16-7.62,8.15-14.94,11.99-21.98-13.14,5.27-25.98,10.41-38.52,15.43-4.43,7.08-9.03,14.44-13.82,22.08Z"/>
        <path class="cls-13" d="m19.37,574.34c12.19-4.69,24.68-9.5,37.48-14.43,4.78-7.65,9.39-15,13.82-22.08-12.25,4.91-24.22,9.71-35.92,14.39-4.94,7.1-10.06,14.47-15.37,22.12Z"/>
        <path class="cls-10" d="m-15.53,587.77c11.36-4.37,22.99-8.85,34.9-13.44,5.32-7.65,10.44-15.02,15.37-22.12-11.44,4.59-22.63,9.07-33.58,13.46-5.36,7.11-10.93,14.47-16.69,22.1Z"/>
        <path class="cls-13" d="m-36.86,586.39c-3.67,4.54-7.42,9.18-11.26,13.92,10.62-4.09,21.47-8.27,32.58-12.54,5.77-7.63,11.33-14.99,16.69-22.1-4.22,1.69-8.4,3.37-12.55,5.03l-25.46,15.69Z"/>
        <path class="cls-13" d="m384.08,393.31c-11.72,4.86-23.24,9.63-34.57,14.32,1.01,5.47,2.06,11.19,3.17,17.18,13.31-5.33,26.9-10.78,40.75-16.33l-9.35-15.18Z"/>
        <path class="cls-10" d="m295.75,447.63c18.43-7.39,37.4-14.99,56.92-22.81-1.11-5.99-2.16-11.71-3.17-17.18-18.21,7.55-35.93,14.89-53.19,22.05-.18,5.73-.36,11.7-.56,17.95Z"/>
        <path class="cls-13" d="m243.44,468.59c16.96-6.8,34.39-13.78,52.31-20.96.2-6.25.38-12.22.56-17.95-16.81,6.97-33.19,13.75-49.15,20.37-1.19,5.92-2.43,12.1-3.72,18.54Z"/>
        <path class="cls-10" d="m195.2,487.92c15.66-6.28,31.73-12.72,48.24-19.33,1.3-6.44,2.54-12.62,3.72-18.54-15.56,6.45-30.74,12.74-45.55,18.87-2.05,6.08-4.19,12.41-6.42,19Z"/>
        <path class="cls-13" d="m150.58,505.8c14.5-5.81,29.37-11.77,44.62-17.88,2.23-6.59,4.36-12.92,6.42-19-14.45,5.99-28.55,11.83-42.33,17.54-2.79,6.2-5.7,12.64-8.71,19.34Z"/>
        <path class="cls-10" d="m109.18,522.39c13.46-5.4,27.26-10.93,41.4-16.59,3.02-6.7,5.92-13.14,8.71-19.34-13.45,5.58-26.6,11.02-39.44,16.34-3.43,6.28-6.98,12.81-10.68,19.58Z"/>
        <path class="cls-13" d="m70.66,537.82c12.54-5.02,25.37-10.16,38.52-15.43,3.69-6.77,7.25-13.3,10.68-19.58-12.55,5.21-24.83,10.29-36.83,15.27-3.97,6.35-8.09,12.93-12.36,19.75Z"/>
        <path class="cls-10" d="m46.82,534.84c-3.9,5.62-7.93,11.41-12.08,17.38,11.7-4.69,23.67-9.49,35.92-14.39,4.27-6.82,8.39-13.4,12.36-19.75-9.31,3.86-18.46,7.65-27.46,11.38l-8.74,5.39Z"/>
        <path class="cls-13" d="m4.98,560.62c-1.26,1.67-2.54,3.36-3.82,5.06,10.95-4.38,22.14-8.87,33.58-13.46,4.15-5.97,8.18-11.76,12.08-17.38l-41.84,25.78Z"/>
        <path class="cls-10" d="m-11.4,570.71c4.15-1.66,8.33-3.34,12.55-5.03,1.29-1.7,2.56-3.39,3.82-5.06l-16.38,10.09Z"/>
        <path class="cls-10" d="m375.94,380.11c-9.88,4.21-19.61,8.37-29.21,12.46.89,4.81,1.81,9.83,2.77,15.06,11.33-4.69,22.85-9.47,34.57-14.32l-8.13-13.2Z"/>
        <path class="cls-13" d="m296.31,429.68c17.26-7.15,34.98-14.5,53.19-22.05-.96-5.24-1.89-10.25-2.77-15.06-17.06,7.28-33.7,14.37-49.93,21.29-.15,5.06-.33,10.32-.49,15.81Z"/>
        <path class="cls-10" d="m247.17,450.05c15.96-6.62,32.34-13.4,49.15-20.37.16-5.49.34-10.75.49-15.81-15.83,6.75-31.27,13.34-46.35,19.77-1.06,5.26-2.15,10.73-3.3,16.42Z"/>
        <path class="cls-13" d="m201.62,468.92c14.8-6.14,29.98-12.43,45.55-18.87,1.15-5.69,2.24-11.16,3.3-16.42-14.72,6.28-29.09,12.41-43.14,18.4-1.83,5.42-3.73,11.05-5.71,16.89Z"/>
        <path class="cls-10" d="m159.29,486.46c13.77-5.71,27.88-11.55,42.33-17.54,1.97-5.85,3.87-11.47,5.71-16.89-13.72,5.86-27.14,11.57-40.25,17.17-2.5,5.55-5.09,11.3-7.78,17.27Z"/>
        <path class="cls-13" d="m119.86,502.81c12.84-5.32,25.98-10.77,39.44-16.34,2.69-5.97,5.28-11.72,7.78-17.27-12.83,5.47-25.37,10.82-37.65,16.06-3.08,5.64-6.27,11.49-9.57,17.55Z"/>
        <path class="cls-10" d="m88.66,509.06c-1.85,2.95-3.73,5.96-5.64,9.01,12-4.98,24.28-10.06,36.83-15.27,3.3-6.06,6.49-11.91,9.57-17.55-2.31.99-4.61,1.97-6.91,2.95l-33.86,20.86Z"/>
        <path class="cls-13" d="m55.57,529.45c9-3.73,18.15-7.52,27.46-11.38,1.91-3.06,3.79-6.06,5.64-9.01l-33.1,20.39Z"/>
        <path class="cls-13" d="m368.81,368.54c-8.28,3.62-16.45,7.19-24.53,10.73.79,4.26,1.6,8.69,2.45,13.31,9.6-4.09,19.33-8.25,29.21-12.46l-7.13-11.57Z"/>
        <path class="cls-10" d="m296.81,413.86c16.22-6.92,32.86-14.01,49.93-21.29-.85-4.61-1.66-9.05-2.45-13.31-16.05,7.02-31.73,13.87-47.04,20.57-.14,4.5-.28,9.18-.44,14.04Z"/>
        <path class="cls-13" d="m250.46,433.63c15.08-6.43,30.52-13.02,46.35-19.77.15-4.86.29-9.54.44-14.04-14.95,6.54-29.56,12.92-43.85,19.17-.94,4.7-1.92,9.57-2.94,14.63Z"/>
        <path class="cls-10" d="m207.33,452.03c14.04-5.99,28.42-12.12,43.14-18.4,1.02-5.06,2-9.94,2.94-14.63-13.96,6.1-27.62,12.08-40.97,17.91-1.64,4.86-3.35,9.9-5.1,15.12Z"/>
        <path class="cls-13" d="m172.34,457.5c-1.71,3.8-3.47,7.69-5.27,11.69,13.11-5.6,26.53-11.31,40.25-17.17,1.76-5.22,3.46-10.26,5.1-15.12-7.75,3.39-15.4,6.73-22.95,10.04l-17.14,10.56Z"/>
        <path class="cls-10" d="m130.5,483.28c-.36.65-.72,1.31-1.07,1.97,12.27-5.24,24.82-10.59,37.65-16.06,1.8-4,3.56-7.9,5.27-11.69l-41.84,25.78Z"/>
        <path class="cls-13" d="m122.52,488.2c2.29-.98,4.6-1.96,6.91-2.95.36-.66.72-1.32,1.07-1.97l-7.98,4.92Z"/>
        <path class="cls-10" d="m362.51,358.3c-6.87,3.07-13.67,6.11-20.41,9.12.7,3.8,1.43,7.75,2.18,11.84,8.08-3.53,16.25-7.11,24.53-10.73l-6.31-10.24Z"/>
        <path class="cls-13" d="m297.25,399.83c15.31-6.69,30.98-13.55,47.04-20.57-.76-4.1-1.48-8.04-2.18-11.84-15.16,6.77-29.97,13.39-44.46,19.87-.12,4.03-.25,8.21-.39,12.54Z"/>
        <path class="cls-10" d="m256.02,405.95c-.84,4.2-1.72,8.54-2.62,13.05,14.28-6.25,28.89-12.63,43.85-19.17.14-4.33.27-8.51.39-12.54-14.03,6.27-27.76,12.4-41.2,18.41l-.42.26Z"/>
        <path class="cls-13" d="m214.18,431.73c-.58,1.71-1.16,3.43-1.75,5.19,13.36-5.84,27.01-11.81,40.97-17.91.9-4.51,1.77-8.85,2.62-13.05l-41.84,25.78Z"/>
        <path class="cls-10" d="m189.48,446.95c7.55-3.3,15.2-6.65,22.95-10.04.59-1.75,1.17-3.48,1.75-5.19l-24.7,15.22Z"/>
        <path class="cls-13" d="m356.89,349.19c-5.63,2.56-11.21,5.1-16.74,7.62.62,3.41,1.28,6.95,1.95,10.61,6.73-3.01,13.54-6.05,20.41-9.12l-5.62-9.12Z"/>
        <path class="cls-10" d="m297.86,380.17c-.08,2.32-.15,4.69-.22,7.11,14.49-6.48,29.3-13.1,44.46-19.87-.67-3.66-1.33-7.2-1.95-10.61-5.63,2.56-11.22,5.11-16.76,7.63l-25.53,15.73Z"/>
        <path class="cls-13" d="m256.44,405.69c13.44-6.01,27.17-12.14,41.2-18.41.07-2.42.15-4.79.22-7.11l-41.43,25.52Z"/>
      </g>
    </g>
  </g>
  <g id="arm_fade" data-name="arm fade">
    <path class="cls-22" d="m176.74,614.13c-.94-.17,0,9,0,9l34.9-14.64,18.74-11.93-1.05-7.87s-45.35,26.7-52.59,25.43Z"/>
    <path class="cls-21" d="m181.25,620.84c-.94-.15-.43,7.85-.43,7.85l21.29-7.07,29.22-19.5-.6-6.6s-42.25,26.49-49.49,25.31Z"/>
  </g>
  <g id="portal_lines" data-name="portal lines">
    <g>
      <g class="cls-18">
        <path class="cls-10" d="m279.42,535.64c4.87,0,8.5,1.28,10.41,3.97,7.12,10.03-12.1,35.89-42.92,57.77-22.53,16-45.03,25.43-58.28,25.43-4.87,0-8.5-1.28-10.41-3.97-7.12-10.03,12.1-35.89,42.92-57.77,22.53-16,45.03-25.43,58.28-25.43m0-25v25-25h0c-10.13,0-22.09,2.95-35.57,8.77-12.03,5.19-24.89,12.55-37.19,21.28-16.99,12.06-31.65,25.84-41.28,38.81-5.65,7.6-9.58,14.94-11.7,21.83-4.88,15.88.5,26.86,4.14,31.99,3.84,5.42,12.96,14.5,30.8,14.5,10.13,0,22.1-2.95,35.57-8.77,12.03-5.19,24.89-12.55,37.19-21.28,16.99-12.06,31.65-25.84,41.28-38.81,5.65-7.6,9.58-14.94,11.7-21.83,4.88-15.88-.5-26.86-4.14-31.99-3.84-5.42-12.96-14.5-30.79-14.5h0Z"/>
      </g>
      <g class="cls-20">
        <path class="cls-10" d="m279.42,535.64c4.87,0,8.5,1.28,10.41,3.97,7.12,10.03-12.1,35.89-42.92,57.77-22.53,16-45.03,25.43-58.28,25.43-4.87,0-8.5-1.28-10.41-3.97-7.12-10.03,12.1-35.89,42.92-57.77,22.53-16,45.03-25.43,58.28-25.43m0-35h0c-30.34,0-65.03,22.31-78.54,31.89-17.82,12.65-33.28,27.21-43.52,41-6.33,8.52-10.78,16.88-13.23,24.86-6.13,19.98.84,34.08,5.55,40.71,4.96,6.99,16.62,18.71,38.95,18.71,30.34,0,65.04-22.3,78.54-31.89,17.82-12.65,33.28-27.21,43.52-41,6.33-8.52,10.78-16.88,13.23-24.86,6.13-19.98-.84-34.08-5.55-40.71-4.96-6.99-16.62-18.71-38.95-18.71h0Z"/>
      </g>
      <path class="cls-10" d="m279.42,535.64c4.87,0,8.5,1.28,10.41,3.97,7.12,10.03-12.1,35.89-42.92,57.77-22.53,16-45.03,25.43-58.28,25.43-4.87,0-8.5-1.28-10.41-3.97-7.12-10.03,12.1-35.89,42.92-57.77,22.53-16,45.03-25.43,58.28-25.43m0-11v11-11h0c-16.02,0-40.79,10.53-64.65,27.46-15.82,11.23-29.37,23.93-38.15,35.74-14.33,19.29-11.92,30.96-7.37,37.37,2.79,3.93,8.41,8.6,19.38,8.6,16.01,0,40.79-10.52,64.65-27.46,15.82-11.23,29.37-23.93,38.15-35.74,14.33-19.29,11.92-30.97,7.37-37.37-2.79-3.93-8.41-8.6-19.38-8.6h0Z"/>
      <ellipse class="cls-9" cx="234.02" cy="579.23" rx="68.44" ry="22.26" transform="translate(-292.09 242.37) rotate(-35.37)"/>
    </g>
  </g>
  <g id="piece">
    <g>
      <path class="cls-9" d="m176.9,448.1c2.4-.04,13.67,1.43,9.97-5.98l14.37-5.39c.87-.33,1.83-.64,2.73-.39,2.21.61,6.82-8.73,6.82-4.18v14.2l-34.88,9.81-6.34-5.52c-.35-.3-.31-.87.09-1.1,2.41-1.44,7.15-1.44,7.25-1.44Z"/>
      <path class="cls-9" d="m219.86,601.96c.23-.21.48-.41.77-.6,7.92-5.13,17.12-7.3,24.8-12.97,5.67-4.19,10.09-9.81,15.16-14.63-7.6-8.11-25.69-31.27-40.46-80.37,6.33-5.49,15.05-15.75,10.22-15.75-6.36,0-11.44-2.54-13.24-5.59.97-1.81,1.26-3.61.68-5.22-.68-1.87-2.44-3.19-4.87-3.92-2.48-9.99-2.5-31.11-2.5-31.11,0,5.72-1.31,6.19-2.43,5.55-.67-.38-1.46-.26-1.98.24-3.09-4.11-7.99-6.78-13.53-6.78-.68,0-1.35.05-2.01.13,0-.13.02-.25.02-.38,0-2.75-2.23-4.98-4.98-4.98s-4.98,2.23-4.98,4.98c0,1.49.66,2.82,1.69,3.74-4.05,3.1-6.68,7.96-6.68,13.45,0,1.97.35,3.85.97,5.61-3.45,1.48-7.95-3.62-7.95-3.62,9.5,10.86,14.9,18.93,16.88,22.98-1.51,2.19-2.08,4.42-1.38,6.36.63,1.74,2.2,3,4.38,3.76-.21,2.89-1.2,10.43-5.92,16.73-3.33,4.44,5.66,5.86,14.89,4.45,6.49,15.17,21.09,54.94,15.78,95.46,0,0,2.58,1.37,6.68,2.49Z"/>
      <path class="cls-14" d="m235.95,559.75c2.8,5.72,5.68,11.52,6.7,17.86.67,4.16.71,8.4.16,12.55.89-.55,1.77-1.14,2.62-1.77,5.83-4.3,10.33-10.12,15.57-15.02-7.71-8.23-26.06-31.81-40.89-81.91-.75.43-1.52.84-2.32,1.23-1.74.84-3.97,1.58-5.03,3.28-.43.68-.94,1.2-1.49,1.58,2.44,4.84,4.01,10.32,5.46,14.91,3.39,10.75,9.29,20.57,13.26,31.54,2.06,5.67,3.49,10.68,5.97,15.75Z"/>
      <path class="cls-14" d="m230.8,477.29c-7.97,0-13.95-3.99-13.95-7.97,0-1.35-3.2-.41-7.44,1.42,3.03,2.9,4.2,7.38,3.41,11.78-1.84,10.26-10.33,16.48-18.93,21.59,3.59-.23,7.5-.93,10.94-2.08,5.46-1.83,10.53-4.62,14.95-8.29,6.35-5.27,16.06-16.43,11.01-16.43Z"/>
      <path class="cls-14" d="m218.23,466.48c-.87-2.4-3.52-3.91-7.09-4.4-.09,1.87-.55,3.78-1.33,5.59.55-1.27-.87,2.14-.83,2.04-.56,1.35-1.12,2.7-1.7,4.04-.88,2.03-1.79,4.07-2.98,5.95-.51.81-1.05,1.57-1.61,2.31.62-.19,1.25-.39,1.87-.62,9.31-3.38,15.43-10.06,13.67-14.91Z"/>
      <path class="cls-14" d="m174.19,453.89s.08-.03.13-.04c.41-.11.87-.13,1.35-.13.04-.03.07-.06.11-.09.14-.12.28-.24.41-.35-.14-1.39-.38-2.8-.41-4.17,0-.61.07-1.17.22-1.67-1.53.08-4.52.36-6.27,1.41-.4.24-.44.8-.09,1.1l4.54,3.96Z"/>
      <path class="cls-14" d="m192.93,431.32c-.95,0-1.89.08-2.8.24-.04.93-.29,1.84-.75,2.64,4.43,2.11,7.13,6.29,7.19,11.65.31-.05.64-.09.99-.09,1.01,0,1.86.24,2.57.64.58-.52,1.28-.94,2.05-1.22-.8.29.19-.13.36-.23.38-.23.75-.48,1.11-.74.59-.42,1.15-.87,1.74-1.29.93-.67,1.92-1.17,2.92-1.67-2.67-5.85-8.54-9.93-15.39-9.93Z"/>
      <path class="cls-14" d="m185.86,426.09c-1.88,0-3.51,1.06-4.32,2.62.62-.28,1.33-.44,2.15-.44,4.07,0,5.62,3.89,4.67,6.87,1.42-.85,2.37-2.4,2.37-4.18,0-2.69-2.18-4.88-4.88-4.88Z"/>
      <path class="cls-14" d="m183.94,449.38c-.72-.26-1.38-.57-1.94-.88-.87-.47-1.99-.05-2.31.89-.02.06-.04.1-.06.15,1.55.54,3.02,1.41,4.4,2.24.29.17.58.33.88.49-.57-.87-.92-1.89-.97-2.9Z"/>
      <path class="cls-14" d="m213.57,463.35c-2.68-9.61-2.7-31.91-2.7-31.91,0,5.72-1.31,6.19-2.43,5.55-.79-.45-1.75-.19-2.22.54-5.89,2.33-.83,4.08-5.02,4.08-.88,0-1.36,2.86-2.01,2.55-1.72.2-3.33-.24-4.48-.72-.9-.37-1.88.16-2.17,1.08,1.91.58,3.69,1.64,5.37,2.68,1.01.63,1.72,1.52,2.13,2.51,1.29.65,2.22,1.53,2.84,2.56,1.42,1.12,2.22,2.93,1.54,5.2-1.46,4.86-4.21,9.08-6.29,13.67-.41.91-.84,1.83-1.3,2.73,8.33-2.36,14.24-7.05,16.28-8.84.49-.43.66-1.08.48-1.7Z"/>
      <path class="cls-16" d="m197.64,504.21c2.33-.36,4.68-.91,6.86-1.64,5.53-1.85,10.58-4.65,14.99-8.31.22-.18.44-.37.68-.57,9.57,31.72,20.49,52.32,28.22,64.26,4.72,7.3,9.04,12.59,12.12,15.9.06-.05.11-.11.17-.16-2.85-3.05-7.12-8.16-12.11-15.86-7.73-11.95-18.65-32.56-28.22-64.3,4.97-4.35,12.43-12.62,11.52-15.14-.18-.5-.66-.75-1.43-.75-5.34,0-11.16-2.16-13.13-5.46.99-1.87,1.24-3.68.66-5.27-.68-1.88-2.45-3.2-4.87-3.95-2.42-9.83-2.48-30.6-2.48-31.05h0c0-.81-.14-1.23-.44-1.34-.58-.21-1.52.91-2.7,2.32-.96,1.14-2,2.38-2.87,2.87.05.06.11.11.16.17.89-.53,1.89-1.72,2.88-2.9.99-1.19,2.01-2.42,2.46-2.25.13.05.3.29.3,1.13,0,4-.66,5.23-1.21,5.55-.3.17-.65.14-1.06-.09-.45-.26-.98-.31-1.46-.14-.21.07-.39.19-.56.33-3.11-4.09-8.02-6.74-13.54-6.74-.65,0-1.27.06-1.9.14,0-.09.01-.18.01-.28,0-2.81-2.28-5.09-5.09-5.09s-5.09,2.28-5.09,5.09c0,1.48.64,2.81,1.65,3.74-4,3.11-6.6,7.94-6.63,13.38-1.62.09-4.47.38-6.2,1.42-.22.13-.36.35-.38.61,0,.08.02.15.03.23-.15-.15-.24-.25-.24-.26l-.16.14s0,0,0,0c9.08,10.38,14.76,18.63,16.85,22.91-1.5,2.21-2.08,4.45-1.37,6.4.62,1.71,2.14,3.01,4.36,3.8-.23,2.94-1.25,10.4-5.89,16.58-.83,1.11-.96,2.09-.36,2.91,1.07,1.49,4.52,2.23,8.79,2.23,2.03,0,4.24-.17,6.48-.51,2.37,5.54,5.79,14.3,8.92,25.09,4.94,17.02,10.1,42.63,7,68.72.08-.04.15-.08.23-.12,3.06-26.08-2.09-51.65-7.03-68.66-3.12-10.76-6.54-19.51-8.91-25.06Zm-16.93-73.55c0-2.69,2.19-4.87,4.87-4.87s4.87,2.19,4.87,4.87c0,.14,0,.28-.02.41-.01.04-.02.07-.03.11h.02c-.26,2.44-2.33,4.35-4.85,4.35-2.69,0-4.87-2.19-4.87-4.87Zm1.59,3.89c.89.75,2.03,1.2,3.28,1.2,2.64,0,4.82-2.02,5.07-4.59.63-.08,1.26-.14,1.91-.14,5.46,0,10.31,2.63,13.39,6.68-.14.16-.27.33-.35.54-1.22,2.98-2.89,4.94-4.97,5.81-2.32.97-4.69.41-6.26-.23-.45-.19-.94-.17-1.39.05-.47.23-.82.66-.96,1.17-.69,2.53-1.88,4.17-3.52,4.87-2.28.97-4.97-.03-6.82-1.04-.45-.24-.98-.28-1.46-.09-.47.19-.84.57-1,1.04-.61,1.8-1.47,2.96-2.56,3.48-.59-1.71-.93-3.54-.93-5.45,0-5.42,2.59-10.22,6.58-13.3Zm-13.15,15.28c.02-.18.12-.34.27-.44,1.68-1,4.53-1.3,6.09-1.38.02,1.89.36,3.7.95,5.4-.17.07-.35.12-.54.16-1.83.36-3.88-.88-5.32-2.04.07.02.13.03.2.06l-1.45-1.27c-.14-.12-.21-.3-.2-.49Zm1.1,1.71c1.48,1.23,3.69,2.65,5.72,2.25,1.53-.31,2.69-1.61,3.46-3.89.14-.41.46-.74.87-.91.42-.17.89-.14,1.28.07,1.9,1.03,4.66,2.05,7.01,1.05,1.71-.73,2.93-2.41,3.64-5.02.13-.45.43-.83.84-1.03.38-.19.82-.2,1.21-.04,1.61.66,4.04,1.24,6.43.23,2.13-.9,3.85-2.89,5.09-5.93.17-.42.51-.75.93-.89.42-.15.89-.1,1.28.13.48.27.91.31,1.28.09.55-.32.93-1.21,1.14-2.64.12,6.48.61,21.47,2.67,28.84.16.59,0,1.2-.45,1.59-2.58,2.27-11.98,9.71-24.77,10.19-.02,0-.04,0-.06,0-.66,0-1.26-.45-1.47-1.1-.14-.46-.39-1.03-.7-1.69,0,0,0,0,0,0-.01-.02-.03-.04-.04-.07-1.98-4.06-7.15-11.65-15.37-21.23Zm14,27.62c-.68-1.86-.14-3.99,1.27-6.11.29.6.5,1.12.63,1.55.23.75.92,1.25,1.68,1.25.02,0,.04,0,.06,0,12.86-.48,22.31-7.96,24.9-10.25.51-.45.7-1.14.52-1.81-.05-.19-.1-.39-.15-.59,2.29.73,3.96,2,4.61,3.78.84,2.31-.11,5.11-2.66,7.9-2.57,2.8-6.46,5.25-10.94,6.88-4.49,1.63-9.03,2.25-12.81,1.75-3.75-.5-6.27-2.04-7.11-4.35Zm-1.92,23.24c-.53-.74-.41-1.63.36-2.65,4.64-6.18,5.69-13.62,5.93-16.63.82.27,1.72.48,2.71.61.86.11,1.76.17,2.69.17,3.18,0,6.72-.66,10.22-1.93,4.52-1.64,8.44-4.1,11.03-6.93.82-.89,1.45-1.78,1.94-2.66.68,1.09,1.76,2.12,3.21,2.99,2.69,1.62,6.25,2.51,10.02,2.51.68,0,1.08.2,1.23.61.39,1.07-.99,3.63-3.79,7.02-2.45,2.98-5.72,6.28-8.52,8.61-4.39,3.64-9.41,6.43-14.92,8.27-8.66,2.89-20.02,2.91-22.11.02Z"/>
    </g>
  </g>
  <g id="stars">
    <polygon class="cls-11" points="196.96 163.35 212.4 166.31 196.82 168.46 193.86 183.9 191.72 168.32 176.28 165.36 191.85 163.21 194.82 147.77 196.96 163.35"/>
    <polygon class="cls-8" points="220.57 214.09 240.82 211.3 220.39 207.38 227.35 197.68 217.9 204.45 215.12 184.21 211.2 204.64 201.49 197.68 208.26 207.12 188.02 209.91 208.45 213.83 201.49 223.53 210.93 216.76 213.72 237 217.64 216.57 227.35 223.53 220.57 214.09"/>
    <polygon class="cls-8" points="174.89 234.05 159.7 236.96 175.02 239.07 177.93 254.26 180.04 238.94 195.23 236.02 179.91 233.92 176.99 218.73 174.89 234.05"/>
  </g>
  <g id="flying_delta" data-name="flying delta">
    <g class="cls-19">
      <g class="cls-17">
        <path class="cls-2" d="m209.18,352.42c-14.33,18.44-29.51,34.02-43.04,49.55-13.57,15.49-25.54,30.98-33.85,48.03l-1.51,3.21-1.42,3.24c-.49,1.1-.85,2.08-1.29,3.13-.46,1.04-.76,2.05-1.09,3.06-.71,1.97-1.28,4.25-1.87,6.43l-.77,3.34c-.24,1.12-.42,2.25-.63,3.38-.77,4.53-1.25,9.16-1.41,13.84-.12,4.69.05,9.42.51,14.18.44,4.76,1.28,9.52,2.32,14.27.5,2.38,1.16,4.74,1.78,7.1l.98,3.32c.08.27.16.58.24.81l.24.64.24.65c.08.22.21.5.31.74,3.35,8.12,9.21,15.97,15.99,23.71l-.75-.68c9.65,9.06,21.59,15.99,34.68,19.4,3.27.85,6.6,1.52,9.98,1.89,1.69.24,3.38.3,5.09.44,1.81.06,3.63.16,5.43.19,7.23.2,14.35.16,21.11-1.03,13.37-2.69,27.09-9.71,36.2-20.58,1.1-1.38,2.09-2.84,2.88-4.4.39-.76.76-1.6,1.01-2.37.22-.74.23-1.44-.03-2-.25-.57-.82-1.06-1.55-1.42-.72-.36-1.56-.6-2.41-.78-1.72-.34-3.54-.44-5.35-.44-3.64.02-7.3.41-10.93.95-3.63.57-7.25,1.24-10.8,2.24,3.48-1.21,7.07-2.09,10.68-2.88,3.62-.76,7.27-1.37,11-1.61,1.86-.11,3.75-.12,5.66.14.96.15,1.92.35,2.88.76.94.4,1.94,1.06,2.53,2.15.59,1.09.59,2.36.34,3.38-.24,1.01-.51,1.91-.87,2.82-.69,1.82-1.6,3.53-2.63,5.15-2.06,3.25-4.58,6.15-7.29,8.82-2.72,2.67-5.65,5.11-8.76,7.33-1.56,1.11-3.18,2.17-4.85,3.15-1.62.97-3.25,1.92-4.95,2.82-3.38,1.8-7,3.41-10.76,4.61-7.55,2.38-15.23,3.39-22.69,4.17-1.88.21-3.74.36-5.61.54-1.97.1-3.96.28-5.95.26-3.98.08-7.98-.18-11.94-.68-15.9-2-31.27-8.35-44.47-17.84l-.75-.68c-4.16-3.67-8.34-7.59-12.32-11.97-3.97-4.38-7.75-9.23-10.95-14.7-.2-.35-.4-.66-.61-1.04l-.63-1.16-.62-1.17c-.19-.38-.32-.7-.49-1.05l-1.87-4.17c-1.12-2.7-2.24-5.37-3.22-8.13-1.99-5.49-3.76-11.12-5.09-16.91-1.35-5.78-2.36-11.68-2.99-17.68-.6-6-.78-12.08-.56-18.19.08-1.53.13-3.06.24-4.59l.43-4.59c.39-3.07.75-6.06,1.4-9.26.3-1.58.58-3.18,1-4.67.39-1.49.76-3.09,1.18-4.5.41-1.44.81-2.89,1.25-4.32l1.36-4.28c3.8-11.34,8.72-22.18,14.24-32.43,5.51-10.26,11.62-19.9,17.78-29.17,12.35-18.5,24.97-35.52,34.8-52.4l43.77,29.88Z"/>
      </g>
    </g>
    <g>
      <polygon class="cls-7" points="194.67 326.61 123.19 333.48 250.06 268.04 194.67 326.61"/>
      <polygon class="cls-5" points="122.64 333.53 194.47 326.45 178.02 343.91 122.64 333.53"/>
      <polygon class="cls-4" points="194.41 326.13 189.65 397.79 250.06 268.04 194.41 326.13"/>
      <polygon class="cls-6" points="189.62 398.33 194.47 326.45 178.02 343.91 189.62 398.33"/>
    </g>
  </g>
  <g id="letters">
    <g>
      <polygon class="cls-15" points="123.1 333.74 195.31 325.9 192.98 301.83 247.81 269.61 251.44 267 188.22 300.5 191.39 324.01 128.24 331.17 123.1 333.74"/>
      <path class="cls-12" d="m196.34,383.45l1.45-31.52,15.69-5.97,5.88-13.05-19.66-7.3,25.08-26.92-6,14.27,2.51.95,10.3-22.54,6.45-6.93-6.63,17.34-5.08,16.52,6.33-14.3,12.37-27.05,6.4-9.94-56.13,58.9-.53,4.98h0s-3.84,64.36-3.84,64.36l5.39-11.78Zm2.45-50.75l.23-3.61,15.14,4.95-3.9,9.23-10.82,4.12-.66-14.69Z"/>
    </g>
  </g>
</svg>